<svg width="231" height="35" viewBox="0 0 231 35" fill="none" xmlns="http://www.w3.org/2000/svg">
<path d="M103.171 0H6.32481C2.83215 0 0 2.95039 0 6.58885V27.7168C0 31.3563 2.83215 34.3057 6.32481 34.3057H103.171C106.665 34.3057 109.496 31.3553 109.496 27.7168V6.58885C109.496 2.95039 106.664 0 103.171 0Z" fill="white" fill-opacity="0.1"/>
<path d="M24.7577 13.5084L21.8103 16.5578L13.158 7.38104C13.592 7.10813 14.1574 7.06598 14.6581 7.36945L24.7577 13.5084Z" fill="#00F076"/>
<path d="M24.8303 20.7536L14.6578 26.9357C14.0499 27.3056 13.3449 27.1623 12.8978 26.7176L21.811 17.5409L24.8303 20.7536Z" fill="#F73448"/>
<path d="M28.2411 18.4756L25.325 20.2479L25.3018 20.2616L22.2825 17.0488L25.2299 13.9994L25.2532 14.0131L28.2421 15.8297C29.2132 16.4208 29.2132 17.8855 28.2411 18.4756Z" fill="#FFCA00"/>
<path d="M12.4262 26.2271C12.4202 26.2207 12.4141 26.2144 12.408 26.2081C12.1451 25.9373 11.9761 25.5601 11.9761 25.1217V9.18435C11.9761 8.6164 12.2604 8.15066 12.665 7.88723C12.672 7.88196 12.6801 7.87775 12.6872 7.87354L21.3394 17.0503L12.4262 26.2271Z" fill="#00D2FF"/>
<path d="M45.15 19.324H43.9716H40.9189V20.5453H43.8856C43.5306 21.9056 42.337 22.9056 40.9189 22.9056C39.2207 22.9056 37.844 21.4715 37.844 19.7023C37.844 17.9331 39.2207 16.499 40.9189 16.499C41.7221 16.499 42.4523 16.8193 42.9996 17.3441L43.829 16.4801C43.0693 15.734 42.0447 15.2778 40.9189 15.2778C38.5733 15.2778 36.6727 17.2587 36.6727 19.7012C36.6727 22.1448 38.5743 24.1247 40.9189 24.1247C43.2646 24.1247 45.1651 22.1437 45.1651 19.7012C45.1662 19.5748 45.1601 19.4484 45.15 19.324Z" fill="white"/>
<path d="M48.4924 18.4096C46.9923 18.4096 45.7765 19.6846 45.7765 21.2568C45.7765 22.83 46.9923 24.1039 48.4924 24.1039C49.9924 24.1039 51.2082 22.8289 51.2082 21.2568C51.2072 19.6836 49.9914 18.4096 48.4924 18.4096ZM48.4924 22.9733C47.6711 22.9733 47.0065 22.2251 47.0065 21.3021C47.0065 20.379 47.6721 19.6309 48.4924 19.6309C49.3137 19.6309 49.9782 20.379 49.9782 21.3021C49.9782 22.2251 49.3127 22.9733 48.4924 22.9733Z" fill="white"/>
<path d="M54.5342 18.4096C53.0342 18.4096 51.8183 19.6846 51.8183 21.2568C51.8183 22.83 53.0342 24.1039 54.5342 24.1039C56.0342 24.1039 57.25 22.83 57.25 21.2568C57.25 19.6836 56.0342 18.4096 54.5342 18.4096ZM54.5342 22.9733C53.7129 22.9733 53.0483 22.2251 53.0483 21.3021C53.0483 20.379 53.7139 19.6309 54.5342 19.6309C55.3555 19.6309 56.0201 20.379 56.0201 21.3021C56.0211 22.2251 55.3555 22.9733 54.5342 22.9733Z" fill="white"/>
<path d="M64.6728 15.278H63.5004V24.2166H64.6728V15.278Z" fill="white"/>
<path d="M69.4912 21.988C69.3152 22.3642 69.0117 22.6561 68.6375 22.8089C68.24 22.9711 67.805 22.9627 67.4136 22.7836C67.1647 22.6698 66.9513 22.497 66.7895 22.2788L70.7717 20.654L70.71 20.438C70.6878 20.3579 70.6615 20.28 70.6331 20.2041C70.3631 19.4865 69.8411 18.9217 69.1634 18.613C68.4858 18.3042 67.7332 18.2895 67.0444 18.5698C66.3556 18.8511 65.8134 19.3948 65.517 20.1008C65.2207 20.8068 65.2065 21.5908 65.4756 22.3083C65.7456 23.0259 66.2676 23.5907 66.9453 23.8995C67.3013 24.0617 67.6776 24.1429 68.0538 24.1429C68.3957 24.1429 68.7366 24.0765 69.0643 23.9427C69.7238 23.674 70.2538 23.1587 70.5573 22.4917L70.6615 22.263L69.5903 21.7762L69.4912 21.988ZM69.124 20.0176L66.4608 21.104C66.4769 20.929 66.5194 20.7552 66.5892 20.5897C66.7602 20.182 67.0737 19.868 67.4712 19.7057C67.6604 19.6288 67.8576 19.5908 68.0528 19.5908C68.4443 19.5908 68.8286 19.7405 69.124 20.0176Z" fill="white"/>
<path d="M61.7174 18.4096V18.9112C61.3209 18.595 60.8404 18.4096 60.3226 18.4096C58.9631 18.4096 57.8616 19.6846 57.8616 21.2567C57.8616 22.8299 58.9631 24.1038 60.3226 24.1038C60.8404 24.1038 61.3209 23.9184 61.7174 23.6023V24.2166C61.7174 24.5685 61.4746 25.5453 60.3681 25.5453C59.2625 25.5453 58.951 24.5158 58.951 24.5158L57.8889 25.0311C57.8889 25.0311 58.2885 26.6559 60.4743 26.6559C61.6577 26.6559 62.2686 25.9405 62.5792 25.284C62.7896 24.8393 62.8907 24.3473 62.8907 23.851V18.4085H61.7174V18.4096ZM60.3226 22.9732C59.5791 22.9732 58.9753 22.2251 58.9753 21.302C58.9753 20.379 59.5781 19.6308 60.3226 19.6308C61.066 19.6308 61.6698 20.379 61.6698 21.302C61.6698 22.2251 61.066 22.9732 60.3226 22.9732Z" fill="white"/>
<path d="M76.0055 15.278H74.8332V24.2166H76.0055V15.278Z" fill="white"/>
<path d="M77.6469 15.278V16.4992C78.4683 16.4992 79.1328 17.2473 79.1328 18.1704C79.1328 19.0934 78.4673 19.8416 77.6469 19.8416V20.9722C79.147 20.9722 80.3628 19.6972 80.3628 18.1251C80.3628 16.5529 79.147 15.278 77.6469 15.278Z" fill="white"/>
<path d="M77.6469 15.278H75.6786V16.4992H77.6469V15.278Z" fill="white"/>
<path d="M77.6469 19.8427H75.6786V20.9734H77.6469V19.8427Z" fill="white"/>
<path d="M82.1442 15.278H80.9719V24.2166H82.1442V15.278Z" fill="white"/>
<path d="M85.9741 23.4369L86.1177 23.2756V24.1302H87.1039V20.4412C87.1039 20.0976 87.0645 19.7984 86.9866 19.5497C86.9107 19.3074 86.7883 19.1082 86.6225 18.9554C86.4556 18.8016 86.2381 18.6857 85.9761 18.6109C85.7091 18.5339 85.3824 18.496 85.0031 18.496C84.7907 18.496 84.5823 18.5139 84.382 18.5497C84.1817 18.5856 83.9946 18.6319 83.8257 18.6888C83.679 18.7373 83.5465 18.791 83.4322 18.8469L83.4949 19.8142C83.5668 19.7763 83.6487 19.7362 83.7387 19.6941C83.8823 19.6277 84.0492 19.5655 84.2353 19.5107C84.4245 19.4549 84.642 19.4264 84.8817 19.4264C85.0668 19.4264 85.2246 19.4475 85.352 19.4875C85.4855 19.5307 85.5948 19.5982 85.6767 19.6899C85.7576 19.7805 85.8163 19.8953 85.8517 20.0292C85.8851 20.1577 85.9013 20.3073 85.9013 20.4759V20.8742H85.3358C84.9039 20.8742 84.5196 20.909 84.1939 20.9764C83.8722 21.0439 83.6011 21.1471 83.3877 21.2852C83.1783 21.4211 83.0185 21.5939 82.9133 21.8004C82.8071 22.008 82.7535 22.2577 82.7535 22.5423C82.7535 22.8057 82.796 23.0385 82.879 23.2345C82.9619 23.4295 83.0802 23.5949 83.2309 23.7256C83.3827 23.8583 83.5647 23.9595 83.7731 24.0269C83.9835 24.0954 84.2192 24.1302 84.472 24.1302C84.7755 24.1302 85.0557 24.0691 85.3045 23.9479C85.5543 23.8267 85.7799 23.6539 85.9741 23.4369ZM85.3601 23.107C85.1831 23.2187 84.9869 23.2756 84.7765 23.2756C84.5236 23.2756 84.3213 23.2061 84.1747 23.0691C84.026 22.929 83.9501 22.7372 83.9501 22.4969C83.9501 22.3568 83.9764 22.2304 84.028 22.1208C84.0806 22.0091 84.1635 21.9132 84.2758 21.8352C84.384 21.7604 84.5246 21.7035 84.6925 21.6666C84.8564 21.6308 85.0557 21.6129 85.2863 21.6129H85.9013V22.6097L85.88 22.6339C85.7071 22.8405 85.5311 22.9996 85.3601 23.107Z" fill="white"/>
<path d="M91.7602 18.5055L90.9035 20.5687L90.3765 21.8374L90.0195 20.9786L88.9928 18.5055H87.7163L89.3812 22.5159L89.7524 23.4105L88.7855 25.871H90.063L90.9035 23.6455L91.5418 22.1071L93.0367 18.5055H91.7602Z" fill="white"/>
<path d="M43.7852 11.9488C43.7852 11.9783 43.7832 12.0046 43.7791 12.0278C43.7751 12.051 43.768 12.07 43.7579 12.0858C43.7478 12.1016 43.7366 12.1142 43.7235 12.1216C43.7103 12.13 43.6962 12.1332 43.681 12.1332H41.6914C41.652 12.1332 41.6115 12.1174 41.57 12.0868C41.5286 12.0563 41.5073 11.9994 41.5073 11.9172V7.92362C41.5073 7.84143 41.5286 7.78559 41.57 7.75397C41.6115 7.72342 41.652 7.70761 41.6914 7.70761H43.6517C43.6668 7.70761 43.681 7.71183 43.6942 7.7192C43.7073 7.72763 43.7184 7.73922 43.7265 7.75503C43.7356 7.77083 43.7417 7.79085 43.7457 7.81509C43.7498 7.83932 43.7518 7.86672 43.7518 7.89939C43.7518 7.92889 43.7498 7.95523 43.7457 7.97841C43.7417 8.0016 43.7346 8.01951 43.7265 8.03532C43.7174 8.05007 43.7073 8.06166 43.6942 8.06903C43.681 8.07746 43.6668 8.08062 43.6517 8.08062H41.9079V9.63696H43.4119C43.4291 9.63696 43.4443 9.64117 43.4575 9.64855C43.4706 9.65698 43.4817 9.66751 43.4898 9.68226C43.4989 9.69702 43.505 9.71598 43.509 9.74022C43.5131 9.76445 43.5151 9.79185 43.5151 9.82452C43.5151 9.85402 43.5131 9.87931 43.509 9.90144C43.505 9.92356 43.4979 9.94042 43.4898 9.95412C43.4807 9.96782 43.4706 9.97836 43.4575 9.98468C43.4443 9.991 43.4291 9.99522 43.4119 9.99522H41.9079V11.7602H43.681C43.6962 11.7602 43.7103 11.7644 43.7235 11.7718C43.7366 11.7802 43.7478 11.7907 43.7579 11.8055C43.768 11.8202 43.7751 11.8392 43.7791 11.8634C43.7832 11.8898 43.7852 11.9172 43.7852 11.9488Z" fill="white"/>
<path d="M47.3666 7.89933C47.3666 7.92883 47.3646 7.95517 47.3605 7.97835C47.3565 8.00154 47.3494 8.01945 47.3413 8.03525C47.3322 8.05001 47.3221 8.0616 47.3089 8.06897C47.2958 8.0774 47.2816 8.08056 47.2665 8.08056H45.9991V12.0646C45.9991 12.0783 45.996 12.091 45.989 12.1026C45.9829 12.1142 45.9718 12.1226 45.9566 12.13C45.9414 12.1363 45.9202 12.1426 45.8939 12.1468C45.8676 12.151 45.8362 12.1532 45.7988 12.1532C45.7614 12.1532 45.73 12.151 45.7037 12.1468C45.6774 12.1426 45.6562 12.1363 45.641 12.13C45.6258 12.1237 45.6147 12.1142 45.6086 12.1026C45.6026 12.091 45.5985 12.0783 45.5985 12.0646V8.08056H44.3311C44.3139 8.08056 44.2988 8.07635 44.2866 8.06897C44.2745 8.06054 44.2644 8.05001 44.2553 8.03525C44.2462 8.0205 44.2401 8.00154 44.2361 7.97835C44.232 7.95517 44.23 7.92883 44.23 7.89933C44.23 7.86771 44.232 7.83926 44.2361 7.81503C44.2401 7.79079 44.2472 7.77077 44.2553 7.75497C44.2644 7.73916 44.2745 7.72652 44.2866 7.71914C44.2988 7.71071 44.3129 7.70755 44.3311 7.70755H47.2665C47.2816 7.70755 47.2958 7.71176 47.3089 7.71914C47.3221 7.72757 47.3332 7.73916 47.3413 7.75497C47.3504 7.77077 47.3565 7.79079 47.3605 7.81503C47.3646 7.84032 47.3666 7.86771 47.3666 7.89933Z" fill="white"/>
<path d="M49.9638 12.0655C49.9638 12.0792 49.9607 12.0919 49.9537 12.1034C49.9466 12.115 49.9365 12.1235 49.9213 12.1308C49.9061 12.1372 49.8859 12.1435 49.8606 12.1477C49.8353 12.1519 49.803 12.154 49.7635 12.154C49.7261 12.154 49.6947 12.1519 49.6684 12.1477C49.6421 12.1435 49.6209 12.1372 49.6057 12.1308C49.5905 12.1245 49.5794 12.115 49.5733 12.1034C49.5673 12.0919 49.5632 12.0792 49.5632 12.0655V7.77586C49.5632 7.76216 49.5673 7.74952 49.5744 7.73793C49.5825 7.72634 49.5936 7.71791 49.6108 7.71053C49.627 7.70421 49.6482 7.69788 49.6735 7.69367C49.6988 7.68945 49.7291 7.68735 49.7635 7.68735C49.803 7.68735 49.8353 7.68945 49.8606 7.69367C49.8859 7.69788 49.9061 7.70421 49.9213 7.71053C49.9365 7.71685 49.9476 7.72634 49.9537 7.73793C49.9597 7.74952 49.9638 7.76216 49.9638 7.77586V12.0655Z" fill="white"/>
<path d="M53.7803 7.89933C53.7803 7.92883 53.7783 7.95517 53.7742 7.97835C53.7702 8.00154 53.7631 8.01945 53.755 8.03525C53.7459 8.05001 53.7358 8.0616 53.7227 8.06897C53.7095 8.0774 53.6954 8.08056 53.6802 8.08056H52.4128V12.0646C52.4128 12.0783 52.4098 12.091 52.4027 12.1026C52.3956 12.1142 52.3855 12.1226 52.3703 12.13C52.3551 12.1363 52.3339 12.1426 52.3076 12.1468C52.2813 12.151 52.2499 12.1532 52.2125 12.1532C52.1751 12.1532 52.1437 12.151 52.1174 12.1468C52.0911 12.1426 52.0699 12.1363 52.0547 12.13C52.0396 12.1237 52.0284 12.1142 52.0224 12.1026C52.0163 12.091 52.0122 12.0783 52.0122 12.0646V8.08056H50.7449C50.7277 8.08056 50.7125 8.07635 50.7003 8.06897C50.6882 8.06054 50.6781 8.05001 50.669 8.03525C50.6599 8.0205 50.6538 8.00154 50.6498 7.97835C50.6457 7.95517 50.6437 7.92883 50.6437 7.89933C50.6437 7.86771 50.6457 7.83926 50.6498 7.81503C50.6538 7.79079 50.6609 7.77077 50.669 7.75497C50.6781 7.73916 50.6882 7.72652 50.7003 7.71914C50.7125 7.71071 50.7266 7.70755 50.7449 7.70755H53.6802C53.6954 7.70755 53.7095 7.71176 53.7227 7.71914C53.7358 7.72757 53.7469 7.73916 53.755 7.75497C53.7641 7.77077 53.7702 7.79079 53.7742 7.81503C53.7783 7.84032 53.7803 7.86771 53.7803 7.89933Z" fill="white"/>
<path d="M59.3935 9.86989C59.3935 10.2229 59.3551 10.5432 59.2772 10.8288C59.1993 11.1154 59.083 11.3588 58.9272 11.5611C58.7714 11.7634 58.5762 11.9183 58.3395 12.0279C58.1028 12.1375 57.8277 12.1923 57.5121 12.1923C57.1966 12.1923 56.9265 12.1406 56.6999 12.0363C56.4733 11.9331 56.2872 11.7845 56.1416 11.5917C55.9959 11.3988 55.8887 11.1638 55.8199 10.8857C55.7511 10.6075 55.7168 10.2935 55.7168 9.9447C55.7168 9.59803 55.7552 9.28297 55.8321 9.00058C55.9089 8.71818 56.0253 8.47688 56.182 8.27773C56.3388 8.07858 56.534 7.92368 56.7697 7.8141C57.0054 7.70451 57.2815 7.64972 57.5991 7.64972C57.9076 7.64972 58.1747 7.70135 58.4002 7.80356C58.6258 7.90577 58.8119 8.05329 58.9596 8.24507C59.1073 8.43684 59.2165 8.66866 59.2883 8.94262C59.3581 9.21659 59.3935 9.52532 59.3935 9.86989ZM58.9666 9.90782C58.9666 9.64545 58.9434 9.39993 58.8958 9.17128C58.8483 8.94262 58.7714 8.74242 58.6632 8.57277C58.555 8.40312 58.4113 8.2693 58.2313 8.17236C58.0523 8.07542 57.8297 8.02695 57.5647 8.02695C57.3017 8.02695 57.0802 8.07753 56.9002 8.17868C56.7191 8.27984 56.5735 8.41682 56.4602 8.58752C56.3479 8.75822 56.266 8.95843 56.2174 9.18603C56.1679 9.41363 56.1436 9.65493 56.1436 9.90782C56.1436 10.1765 56.1659 10.4273 56.2114 10.6581C56.2559 10.8899 56.3327 11.0911 56.44 11.2618C56.5472 11.4325 56.6908 11.5664 56.8698 11.6633C57.0489 11.7602 57.2734 11.8087 57.5425 11.8087C57.8095 11.8087 58.0341 11.7571 58.2151 11.6528C58.3972 11.5495 58.5439 11.4104 58.6551 11.2355C58.7664 11.0606 58.8463 10.8593 58.8948 10.6296C58.9424 10.402 58.9666 10.1607 58.9666 9.90782Z" fill="white"/>
<path d="M63.4249 11.9319C63.4249 11.973 63.4188 12.0067 63.4067 12.0341C63.3945 12.0615 63.3794 12.0836 63.3612 12.1005C63.343 12.1173 63.3217 12.13 63.2984 12.1363C63.2752 12.1426 63.2539 12.1469 63.2347 12.1469H63.1528C63.1093 12.1469 63.0688 12.1416 63.0334 12.13C62.997 12.1184 62.9626 12.0984 62.9282 12.0699C62.8939 12.0415 62.8605 12.0035 62.8261 11.9551C62.7917 11.9077 62.7543 11.8455 62.7128 11.7707L61.2158 9.0068C61.141 8.87192 61.0661 8.73389 60.9913 8.59163C60.9154 8.44938 60.8436 8.31029 60.7758 8.17647H60.7728C60.7748 8.34296 60.7758 8.51366 60.7758 8.68752C60.7758 8.86244 60.7758 9.03209 60.7758 9.19857V12.0647C60.7758 12.0784 60.7728 12.091 60.7657 12.1026C60.7596 12.1142 60.7485 12.1226 60.7333 12.13C60.7182 12.1363 60.6979 12.1426 60.6726 12.1469C60.6474 12.1511 60.615 12.1532 60.5755 12.1532C60.5381 12.1532 60.5068 12.1511 60.4805 12.1469C60.4542 12.1426 60.4329 12.1363 60.4177 12.13C60.4026 12.1237 60.3914 12.1142 60.3854 12.1026C60.3793 12.091 60.3753 12.0784 60.3753 12.0647V7.92358C60.3753 7.84139 60.3965 7.78555 60.438 7.75393C60.4794 7.72338 60.5199 7.70757 60.5593 7.70757H60.7232C60.7758 7.70757 60.8193 7.71179 60.8547 7.72127C60.8901 7.73075 60.9215 7.7455 60.9498 7.76763C60.9781 7.78976 61.0064 7.82032 61.0337 7.86036C61.061 7.9004 61.0914 7.95098 61.1238 8.01209L62.2698 10.129C62.3416 10.2618 62.4104 10.3882 62.4751 10.5104C62.5398 10.6327 62.6026 10.7517 62.6643 10.8698C62.726 10.9867 62.7866 11.1026 62.8463 11.2164C62.907 11.3302 62.9657 11.4451 63.0253 11.562H63.0284C63.0264 11.3703 63.0253 11.1711 63.0253 10.9635C63.0253 10.756 63.0253 10.5568 63.0253 10.365V7.78976C63.0253 7.77606 63.0284 7.76342 63.0355 7.75183C63.0415 7.74024 63.0527 7.73075 63.0678 7.72232C63.083 7.71389 63.1032 7.70862 63.1285 7.70546C63.1538 7.7023 63.1862 7.7002 63.2256 7.7002C63.261 7.7002 63.2914 7.7023 63.3177 7.70546C63.344 7.70862 63.3652 7.71495 63.3804 7.72232C63.3955 7.73075 63.4067 7.74024 63.4148 7.75183C63.4229 7.76342 63.4259 7.77606 63.4259 7.78976V11.9319H63.4249Z" fill="white"/>
<path d="M36.6729 9.91716C36.6729 11.111 37.6055 12.0825 38.7515 12.0825C39.8975 12.0825 40.8301 11.111 40.8301 9.91716C40.8301 9.8866 40.8291 9.85605 40.828 9.82549H38.8496V10.247H40.4002L40.3668 10.3766C40.1696 11.1331 39.505 11.6621 38.7515 11.6621C37.828 11.6621 37.0775 10.8803 37.0775 9.91821C37.0775 8.95618 37.828 8.17432 38.7515 8.17432C39.1409 8.17432 39.5141 8.31447 39.8135 8.57052L40.1008 8.27126C39.7245 7.93618 39.2491 7.75284 38.7515 7.75284C37.6055 7.75179 36.6729 8.72331 36.6729 9.91716Z" fill="white"/>
<path d="M223.853 0.316437H127.006C123.514 0.316437 120.682 3.26683 120.682 6.90529V28.0332C120.682 31.6728 123.514 34.6221 127.006 34.6221H223.853C227.347 34.6221 230.178 31.6717 230.178 28.0332V6.90529C230.178 3.26683 227.346 0.316437 223.853 0.316437Z" fill="white" fill-opacity="0.1"/>
<path d="M145.929 18.8637C145.402 16.0746 147.73 14.5846 147.9 14.4803C147.543 13.984 147.129 13.6089 146.71 13.337C145.318 12.4329 143.623 12.3487 142.614 12.8112C142.604 12.8154 142.594 12.8207 142.584 12.8249C141.6 13.2728 140.481 13.2728 139.497 12.8249C139.487 12.8207 139.477 12.8154 139.467 12.8112C138.458 12.3487 136.763 12.4329 135.371 13.337C133.979 14.2411 132.627 16.28 133.313 20.1893C133.999 24.0986 136.501 26.4736 136.501 26.4736C136.501 26.4736 137.691 27.5453 139.265 26.8308C140.248 26.3841 140.697 26.3072 140.894 26.3124C140.992 26.3145 141.09 26.3145 141.187 26.3124C141.384 26.3072 141.832 26.3851 142.816 26.8308C144.389 27.5453 145.58 26.4736 145.58 26.4736C145.58 26.4736 147.333 24.8088 148.307 21.9732C147.469 21.5707 146.273 20.6898 145.929 18.8637Z" fill="white"/>
<path d="M140.598 12.6639C140.598 12.6639 140.157 8.7683 144.371 8.07074L144.353 8.59338C144.284 10.7503 142.664 12.5058 140.598 12.6639Z" fill="white"/>
<path d="M157.422 9.27425C157.422 9.75475 157.364 10.1773 157.248 10.545C157.132 10.9117 156.961 11.2183 156.735 11.466C156.509 11.7136 156.23 11.9001 155.898 12.0276C155.566 12.154 155.169 12.2173 154.708 12.2173H153.626C153.575 12.2173 153.523 12.1972 153.469 12.1572C153.416 12.1172 153.388 12.0445 153.388 11.938V6.77801C153.388 6.67159 153.416 6.59888 153.469 6.55884C153.523 6.5188 153.575 6.49878 153.626 6.49878H154.78C155.246 6.49878 155.641 6.56516 155.962 6.69793C156.282 6.8307 156.551 7.01826 156.768 7.26167C156.984 7.50507 157.147 7.7959 157.257 8.13625C157.368 8.47765 157.422 8.85698 157.422 9.27425ZM156.867 9.30165C156.867 8.96868 156.826 8.65994 156.746 8.37649C156.666 8.09199 156.541 7.84753 156.373 7.641C156.205 7.43447 155.992 7.27326 155.735 7.15735C155.478 7.04144 155.149 6.98243 154.751 6.98243H153.907V11.7368H154.756C155.129 11.7368 155.445 11.6894 155.704 11.5935C155.963 11.4976 156.178 11.3501 156.35 11.1499C156.523 10.9497 156.651 10.6968 156.738 10.3922C156.823 10.0856 156.867 9.72208 156.867 9.30165Z" fill="white"/>
<path d="M161.964 10.0873C161.964 10.4055 161.925 10.6984 161.846 10.9661C161.767 11.2337 161.649 11.4666 161.492 11.6647C161.335 11.8617 161.139 12.0156 160.904 12.1262C160.669 12.2369 160.396 12.2917 160.086 12.2917C159.786 12.2917 159.523 12.2421 159.299 12.1441C159.074 12.0451 158.886 11.9039 158.734 11.7195C158.583 11.5351 158.47 11.3128 158.396 11.0504C158.321 10.788 158.283 10.4919 158.283 10.1621C158.283 9.84388 158.322 9.55095 158.4 9.28331C158.478 9.01567 158.595 8.7828 158.752 8.58786C158.908 8.39187 159.105 8.23908 159.339 8.13055C159.574 8.02202 159.848 7.96722 160.162 7.96722C160.461 7.96722 160.724 8.01569 160.949 8.11264C161.173 8.20958 161.36 8.35077 161.511 8.53412C161.661 8.71852 161.774 8.94085 161.85 9.20323C161.926 9.4656 161.964 9.76064 161.964 10.0873ZM161.43 10.1358C161.43 9.90921 161.409 9.69215 161.366 9.48667C161.324 9.28015 161.253 9.09891 161.154 8.94085C161.055 8.7828 160.922 8.65846 160.755 8.56573C160.589 8.47301 160.381 8.42664 160.132 8.42664C159.904 8.42664 159.705 8.46984 159.539 8.55519C159.372 8.64055 159.235 8.75961 159.129 8.91135C159.023 9.06308 158.945 9.24221 158.893 9.44769C158.843 9.65422 158.817 9.87655 158.817 10.1147C158.817 10.3444 158.839 10.5636 158.881 10.7711C158.924 10.9787 158.994 11.161 159.094 11.317C159.193 11.4729 159.325 11.5973 159.492 11.6879C159.659 11.7795 159.866 11.8249 160.115 11.8249C160.344 11.8249 160.542 11.7817 160.709 11.6963C160.876 11.611 161.012 11.4929 161.119 11.3433C161.225 11.1926 161.303 11.0146 161.354 10.8091C161.404 10.6015 161.43 10.3771 161.43 10.1358Z" fill="white"/>
<path d="M168.149 8.12121C168.149 8.13596 168.147 8.15282 168.143 8.17179C168.139 8.19075 168.134 8.21183 168.128 8.23606L166.941 12.1285C166.935 12.1517 166.925 12.1717 166.909 12.1864C166.894 12.2012 166.873 12.2128 166.848 12.2222C166.822 12.2317 166.789 12.237 166.748 12.2402C166.706 12.2433 166.657 12.2444 166.601 12.2444C166.541 12.2444 166.491 12.2423 166.448 12.2381C166.406 12.2338 166.371 12.2275 166.344 12.218C166.317 12.2096 166.295 12.197 166.28 12.1822C166.265 12.1675 166.254 12.1495 166.249 12.1295L165.358 8.97471L165.35 8.93889L165.342 8.97471L164.51 12.1295C164.504 12.1527 164.493 12.1727 164.476 12.1875C164.459 12.2022 164.435 12.2138 164.406 12.2233C164.377 12.2317 164.34 12.2381 164.298 12.2412C164.255 12.2444 164.208 12.2454 164.153 12.2454C164.096 12.2454 164.049 12.2433 164.008 12.2391C163.969 12.2349 163.936 12.2286 163.908 12.2191C163.881 12.2107 163.861 12.198 163.847 12.1833C163.832 12.1685 163.822 12.1506 163.817 12.1306L162.638 8.23817C162.63 8.2171 162.623 8.19708 162.619 8.176C162.615 8.15493 162.613 8.13807 162.613 8.12332C162.613 8.10224 162.617 8.08538 162.626 8.07063C162.634 8.05588 162.648 8.04534 162.668 8.03797C162.688 8.03059 162.714 8.02532 162.744 8.02216C162.775 8.019 162.813 8.01794 162.858 8.01794C162.918 8.01794 162.966 8.02005 163.003 8.02427C163.039 8.02848 163.068 8.0348 163.086 8.04429C163.104 8.05272 163.117 8.06536 163.126 8.08011C163.134 8.09487 163.142 8.11278 163.148 8.1328L164.161 11.6237L164.169 11.6543L164.177 11.6237L165.098 8.1328C165.104 8.11172 165.111 8.09487 165.121 8.08011C165.131 8.06536 165.145 8.05377 165.164 8.04429C165.182 8.03586 165.207 8.02848 165.239 8.02427C165.272 8.02005 165.313 8.01794 165.365 8.01794C165.413 8.01794 165.453 8.02005 165.483 8.02427C165.515 8.02848 165.54 8.0348 165.559 8.04429C165.579 8.05272 165.593 8.06536 165.601 8.08011C165.61 8.09487 165.617 8.11278 165.623 8.1328L166.615 11.6237L166.623 11.6543L166.627 11.6237L167.637 8.1328C167.643 8.11172 167.65 8.09487 167.66 8.08011C167.67 8.06536 167.684 8.05377 167.704 8.04429C167.725 8.03586 167.752 8.02848 167.787 8.02427C167.823 8.02005 167.868 8.01794 167.925 8.01794C167.97 8.01794 168.007 8.019 168.035 8.02216C168.063 8.02532 168.086 8.03059 168.103 8.04007C168.12 8.0485 168.131 8.06009 168.137 8.07274C168.146 8.08327 168.149 8.10013 168.149 8.12121Z" fill="white"/>
<path d="M172.237 12.1283C172.237 12.1462 172.233 12.162 172.224 12.1768C172.215 12.1915 172.201 12.2031 172.183 12.2126C172.165 12.221 172.14 12.2284 172.107 12.2347C172.075 12.241 172.034 12.2431 171.986 12.2431C171.935 12.2431 171.893 12.24 171.86 12.2347C171.828 12.2294 171.803 12.221 171.785 12.2126C171.766 12.2042 171.753 12.1915 171.744 12.1768C171.736 12.162 171.731 12.1462 171.731 12.1283V9.75638C171.731 9.50876 171.713 9.3075 171.675 9.15366C171.639 8.99876 171.583 8.86599 171.509 8.75641C171.436 8.64577 171.342 8.56042 171.227 8.50036C171.113 8.4403 170.979 8.40974 170.827 8.40974C170.632 8.40974 170.436 8.48139 170.241 8.62575C170.046 8.77011 169.841 8.9819 169.626 9.26219V12.1293C169.626 12.1472 169.622 12.1631 169.613 12.1778C169.605 12.1926 169.591 12.2042 169.572 12.2136C169.554 12.2221 169.529 12.2294 169.497 12.2358C169.464 12.2421 169.423 12.2442 169.371 12.2442C169.323 12.2442 169.283 12.241 169.25 12.2358C169.216 12.2305 169.191 12.2221 169.171 12.2136C169.151 12.2052 169.138 12.1926 169.13 12.1778C169.123 12.1631 169.12 12.1472 169.12 12.1293V8.12945C169.12 8.11154 169.123 8.09573 169.13 8.08098C169.138 8.06623 169.151 8.05358 169.171 8.04305C169.191 8.03251 169.215 8.02513 169.245 8.02092C169.274 8.0167 169.314 8.0146 169.361 8.0146C169.409 8.0146 169.449 8.0167 169.479 8.02092C169.511 8.02513 169.535 8.03251 169.551 8.04305C169.567 8.05358 169.581 8.06623 169.588 8.08098C169.595 8.09573 169.598 8.11154 169.598 8.12945V8.69529C169.818 8.43924 170.035 8.25379 170.247 8.13893C170.46 8.02408 170.67 7.96613 170.879 7.96613C171.131 7.96613 171.343 8.01038 171.516 8.09889C171.689 8.1874 171.827 8.30647 171.933 8.45716C172.039 8.60784 172.115 8.78275 172.162 8.98296C172.208 9.18316 172.232 9.42446 172.232 9.70791V12.1283H172.237Z" fill="white"/>
<path d="M174.142 12.1285C174.142 12.1464 174.138 12.1622 174.129 12.1769C174.121 12.1917 174.107 12.2033 174.088 12.2128C174.07 12.2212 174.045 12.2286 174.013 12.2349C173.98 12.2412 173.939 12.2433 173.887 12.2433C173.839 12.2433 173.799 12.2402 173.766 12.2349C173.733 12.2286 173.707 12.2212 173.687 12.2128C173.667 12.2043 173.653 12.1917 173.646 12.1769C173.639 12.1622 173.636 12.1464 173.636 12.1285V6.1729C173.636 6.15499 173.639 6.13918 173.646 6.12443C173.653 6.10968 173.667 6.09703 173.687 6.08649C173.707 6.07596 173.732 6.06858 173.766 6.06437C173.798 6.06015 173.839 6.05804 173.887 6.05804C173.938 6.05804 173.98 6.06015 174.013 6.06437C174.045 6.06858 174.07 6.07596 174.088 6.08649C174.107 6.09703 174.12 6.10968 174.129 6.12443C174.137 6.13918 174.142 6.15499 174.142 6.1729V12.1285Z" fill="white"/>
<path d="M178.952 10.0873C178.952 10.4055 178.912 10.6984 178.833 10.9661C178.754 11.2337 178.636 11.4666 178.479 11.6647C178.323 11.8617 178.126 12.0156 177.892 12.1262C177.657 12.2369 177.384 12.2917 177.073 12.2917C176.774 12.2917 176.511 12.2421 176.286 12.1441C176.062 12.0451 175.874 11.9039 175.722 11.7195C175.57 11.5351 175.458 11.3128 175.383 11.0504C175.308 10.788 175.271 10.4919 175.271 10.1621C175.271 9.84388 175.309 9.55095 175.387 9.28331C175.465 9.01567 175.582 8.7828 175.739 8.58786C175.896 8.39187 176.092 8.23908 176.327 8.13055C176.562 8.02202 176.836 7.96722 177.149 7.96722C177.449 7.96722 177.712 8.01569 177.936 8.11264C178.161 8.20958 178.348 8.35077 178.499 8.53412C178.648 8.71852 178.762 8.94085 178.837 9.20323C178.913 9.4656 178.952 9.76064 178.952 10.0873ZM178.417 10.1358C178.417 9.90921 178.395 9.69215 178.353 9.48667C178.31 9.28015 178.24 9.09891 178.141 8.94085C178.041 8.7828 177.909 8.65846 177.742 8.56573C177.575 8.47301 177.368 8.42664 177.119 8.42664C176.89 8.42664 176.692 8.46984 176.525 8.55519C176.358 8.64055 176.222 8.75961 176.116 8.91135C176.009 9.06308 175.931 9.24221 175.88 9.44769C175.829 9.65422 175.804 9.87655 175.804 10.1147C175.804 10.3444 175.825 10.5636 175.868 10.7711C175.91 10.9787 175.981 11.161 176.08 11.317C176.179 11.4729 176.312 11.5973 176.479 11.6879C176.646 11.7795 176.853 11.8249 177.102 11.8249C177.33 11.8249 177.529 11.7817 177.695 11.6963C177.862 11.611 177.999 11.4929 178.105 11.3433C178.211 11.1926 178.289 11.0146 178.341 10.8091C178.391 10.6015 178.417 10.3771 178.417 10.1358Z" fill="white"/>
<path d="M182.773 12.1286C182.773 12.1581 182.764 12.1813 182.746 12.1971C182.728 12.2129 182.703 12.2255 182.674 12.2329C182.645 12.2403 182.604 12.2435 182.554 12.2435C182.505 12.2435 182.465 12.2392 182.43 12.2329C182.396 12.2255 182.371 12.214 182.351 12.1971C182.333 12.1813 182.324 12.1581 182.324 12.1286V11.6818C182.151 11.8768 181.961 12.0264 181.754 12.1328C181.546 12.2392 181.33 12.2919 181.107 12.2919C180.907 12.2919 180.726 12.2645 180.566 12.2097C180.406 12.1549 180.272 12.077 180.162 11.9758C180.051 11.8747 179.966 11.7514 179.907 11.607C179.847 11.4627 179.818 11.3004 179.818 11.1213C179.818 10.9 179.861 10.7082 179.949 10.5449C180.037 10.3816 180.162 10.2456 180.322 10.136C180.483 10.0275 180.677 9.94532 180.903 9.89052C181.13 9.83573 181.38 9.80833 181.658 9.80833H182.269V9.46377C182.269 9.29307 182.251 9.14239 182.218 9.01067C182.184 8.88001 182.129 8.76937 182.052 8.68192C181.976 8.5934 181.877 8.52702 181.755 8.48277C181.633 8.43851 181.485 8.41638 181.31 8.41638C181.14 8.41638 180.987 8.43746 180.851 8.48066C180.716 8.52386 180.597 8.57128 180.495 8.62396C180.393 8.67665 180.309 8.72512 180.244 8.76727C180.177 8.81047 180.129 8.83154 180.102 8.83154C180.085 8.83154 180.07 8.82838 180.055 8.82311C180.041 8.81679 180.029 8.80625 180.019 8.79045C180.009 8.77464 180.002 8.75357 179.998 8.72828C179.994 8.70299 179.992 8.67349 179.992 8.63766C179.992 8.57549 179.996 8.52597 180.005 8.49014C180.013 8.45326 180.035 8.41638 180.071 8.3795C180.106 8.34262 180.169 8.29942 180.26 8.24884C180.35 8.19826 180.454 8.1519 180.571 8.10975C180.689 8.06655 180.815 8.03283 180.951 8.00543C181.086 7.97804 181.222 7.96539 181.358 7.96539C181.621 7.96539 181.843 7.99806 182.024 8.06444C182.205 8.13083 182.351 8.22566 182.463 8.34894C182.574 8.47223 182.654 8.62502 182.702 8.80625C182.751 8.98749 182.774 9.19297 182.774 9.42268V12.1286H182.773ZM182.269 10.2425H181.569C181.365 10.2425 181.187 10.2614 181.035 10.3004C180.882 10.3383 180.754 10.3942 180.653 10.468C180.551 10.5417 180.476 10.6302 180.427 10.7335C180.377 10.8368 180.353 10.9548 180.353 11.0865C180.353 11.3162 180.423 11.4995 180.563 11.6365C180.703 11.7735 180.9 11.842 181.155 11.842C181.355 11.842 181.543 11.7883 181.717 11.6808C181.891 11.5733 182.075 11.4079 182.271 11.1834V10.2425H182.269Z" fill="white"/>
<path d="M187.268 12.1288C187.268 12.1498 187.265 12.1667 187.258 12.1815C187.25 12.1962 187.237 12.2078 187.219 12.2173C187.201 12.2268 187.178 12.2331 187.149 12.2373C187.121 12.2415 187.086 12.2436 187.043 12.2436C186.998 12.2436 186.96 12.2415 186.931 12.2373C186.901 12.2331 186.877 12.2268 186.859 12.2173C186.841 12.2089 186.827 12.1962 186.817 12.1815C186.806 12.1667 186.801 12.1488 186.801 12.1288V11.5545C186.598 11.7842 186.387 11.9644 186.169 12.0961C185.952 12.2268 185.714 12.2932 185.457 12.2932C185.18 12.2932 184.944 12.2373 184.749 12.1256C184.554 12.0139 184.395 11.8622 184.272 11.6704C184.148 11.4786 184.059 11.2542 184.003 10.9971C183.946 10.74 183.918 10.466 183.918 10.1773C183.918 9.83906 183.953 9.53243 184.024 9.26057C184.095 8.98766 184.199 8.75585 184.337 8.56512C184.476 8.37335 184.647 8.22688 184.85 8.12362C185.054 8.02036 185.29 7.96872 185.558 7.96872C185.79 7.96872 186.002 8.02246 186.194 8.12994C186.387 8.23742 186.576 8.39548 186.763 8.60517V6.19533C186.763 6.17742 186.767 6.16161 186.773 6.14686C186.779 6.13211 186.793 6.12052 186.813 6.11103C186.834 6.1026 186.859 6.09523 186.892 6.0889C186.925 6.08258 186.965 6.08047 187.014 6.08047C187.064 6.08047 187.107 6.08364 187.139 6.0889C187.172 6.09523 187.197 6.1026 187.215 6.11103C187.233 6.11946 187.246 6.13211 187.256 6.14686C187.264 6.16161 187.269 6.17742 187.269 6.19533V12.1288H187.268ZM186.763 9.24371C186.551 8.97607 186.346 8.7706 186.15 8.6294C185.954 8.4882 185.747 8.4176 185.533 8.4176C185.338 8.4176 185.171 8.46608 185.032 8.56302C184.894 8.65996 184.78 8.78851 184.693 8.94762C184.605 9.10673 184.542 9.28586 184.502 9.48712C184.463 9.68733 184.443 9.89069 184.443 10.0972C184.443 10.3185 184.46 10.5335 184.493 10.7421C184.528 10.9507 184.585 11.1372 184.667 11.3006C184.749 11.4639 184.858 11.5956 184.994 11.6936C185.129 11.7926 185.299 11.8411 185.503 11.8411C185.605 11.8411 185.703 11.8264 185.8 11.7969C185.896 11.7674 185.995 11.7189 186.097 11.6514C186.2 11.584 186.305 11.4965 186.413 11.3891C186.522 11.2816 186.639 11.1478 186.763 10.9897V9.24371Z" fill="white"/>
<path d="M194.046 10.0874C194.046 10.4057 194.006 10.6986 193.927 10.9662C193.849 11.2339 193.73 11.4667 193.573 11.6648C193.417 11.8619 193.22 12.0157 192.986 12.1264C192.751 12.237 192.478 12.2918 192.167 12.2918C191.868 12.2918 191.605 12.2423 191.38 12.1443C191.156 12.0463 190.968 11.904 190.816 11.7196C190.664 11.5352 190.552 11.3129 190.477 11.0505C190.402 10.7882 190.365 10.4921 190.365 10.1623C190.365 9.84404 190.403 9.5511 190.481 9.28346C190.559 9.01582 190.676 8.78295 190.833 8.58801C190.99 8.39202 191.186 8.23923 191.421 8.1307C191.656 8.02217 191.93 7.96738 192.243 7.96738C192.543 7.96738 192.806 8.01585 193.03 8.11279C193.255 8.20973 193.442 8.35093 193.593 8.53427C193.742 8.71867 193.856 8.941 193.931 9.20338C194.007 9.46575 194.046 9.76079 194.046 10.0874ZM193.512 10.1359C193.512 9.90937 193.49 9.6923 193.448 9.48683C193.405 9.2803 193.335 9.09906 193.236 8.94101C193.136 8.78295 193.004 8.65861 192.837 8.56588C192.67 8.47316 192.463 8.42679 192.214 8.42679C191.985 8.42679 191.787 8.47 191.62 8.55535C191.453 8.6407 191.317 8.75977 191.211 8.9115C191.104 9.06324 191.026 9.24237 190.975 9.44784C190.924 9.65437 190.899 9.8767 190.899 10.1148C190.899 10.3445 190.92 10.5637 190.963 10.7713C191.005 10.9789 191.076 11.1612 191.175 11.3171C191.274 11.4731 191.407 11.5974 191.574 11.688C191.741 11.7786 191.948 11.825 192.197 11.825C192.425 11.825 192.624 11.7818 192.791 11.6965C192.957 11.6111 193.094 11.4931 193.2 11.3435C193.306 11.1928 193.384 11.0147 193.436 10.8092C193.486 10.6017 193.512 10.3772 193.512 10.1359Z" fill="white"/>
<path d="M198.291 12.1283C198.291 12.1462 198.287 12.162 198.278 12.1768C198.27 12.1915 198.256 12.2031 198.238 12.2126C198.22 12.221 198.194 12.2284 198.162 12.2347C198.13 12.241 198.089 12.2431 198.041 12.2431C197.99 12.2431 197.948 12.24 197.915 12.2347C197.883 12.2284 197.858 12.221 197.839 12.2126C197.821 12.2042 197.808 12.1915 197.799 12.1768C197.791 12.162 197.786 12.1462 197.786 12.1283V9.75638C197.786 9.50876 197.767 9.3075 197.73 9.15366C197.694 8.99876 197.638 8.86599 197.564 8.75641C197.49 8.64682 197.396 8.56042 197.282 8.50036C197.168 8.4403 197.034 8.40974 196.881 8.40974C196.686 8.40974 196.491 8.48139 196.296 8.62575C196.101 8.77011 195.895 8.9819 195.681 9.26219V12.1293C195.681 12.1472 195.677 12.1631 195.668 12.1778C195.66 12.1926 195.645 12.2042 195.627 12.2136C195.609 12.2221 195.584 12.2294 195.551 12.2358C195.519 12.2421 195.478 12.2442 195.426 12.2442C195.377 12.2442 195.338 12.241 195.305 12.2358C195.272 12.2294 195.246 12.2221 195.226 12.2136C195.205 12.2052 195.192 12.1926 195.185 12.1778C195.178 12.1631 195.175 12.1472 195.175 12.1293V8.12945C195.175 8.11154 195.178 8.09573 195.185 8.08098C195.192 8.06623 195.205 8.05358 195.226 8.04305C195.246 8.03251 195.27 8.02513 195.299 8.02092C195.329 8.0167 195.368 8.0146 195.416 8.0146C195.464 8.0146 195.504 8.0167 195.534 8.02092C195.566 8.02513 195.59 8.03251 195.606 8.04305C195.623 8.05358 195.635 8.06623 195.642 8.08098C195.649 8.09573 195.652 8.11154 195.652 8.12945V8.69529C195.873 8.43924 196.089 8.25379 196.302 8.13893C196.514 8.02408 196.725 7.96613 196.934 7.96613C197.186 7.96613 197.397 8.01038 197.57 8.09889C197.743 8.1874 197.882 8.30647 197.988 8.45716C198.094 8.60784 198.17 8.78275 198.217 8.98296C198.263 9.18316 198.286 9.42446 198.286 9.70791V12.1283H198.291Z" fill="white"/>
<path d="M203.505 11.8905C203.505 11.9527 203.5 12.0022 203.489 12.0412C203.479 12.0791 203.464 12.1097 203.443 12.1318C203.422 12.1539 203.39 12.175 203.35 12.194C203.308 12.2129 203.262 12.2298 203.208 12.2424C203.155 12.2561 203.098 12.2656 203.038 12.273C202.979 12.2804 202.921 12.2835 202.864 12.2835C202.675 12.2835 202.513 12.2572 202.381 12.2045C202.248 12.1518 202.139 12.0717 202.054 11.9632C201.969 11.8557 201.908 11.7198 201.87 11.5544C201.832 11.3889 201.812 11.195 201.812 10.9717V8.48384H201.24C201.2 8.48384 201.169 8.46593 201.147 8.42905C201.125 8.39217 201.112 8.33737 201.112 8.26361C201.112 8.22568 201.116 8.19196 201.121 8.16457C201.127 8.13611 201.135 8.11293 201.146 8.09397C201.157 8.075 201.17 8.0613 201.186 8.05182C201.202 8.04339 201.22 8.03812 201.239 8.03812H201.811V7.05712C201.811 7.0392 201.814 7.0234 201.822 7.00864C201.829 6.99389 201.842 6.98125 201.862 6.97071C201.882 6.96017 201.908 6.9528 201.941 6.94858C201.973 6.94437 202.014 6.94226 202.062 6.94226C202.113 6.94226 202.155 6.94437 202.188 6.94858C202.22 6.9528 202.245 6.96017 202.264 6.97071C202.282 6.98125 202.295 6.99389 202.304 7.00864C202.312 7.0234 202.317 7.0392 202.317 7.05712V8.03812H203.377C203.397 8.03812 203.415 8.04233 203.43 8.05182C203.445 8.06025 203.459 8.075 203.47 8.09397C203.481 8.11293 203.49 8.13717 203.496 8.16457C203.502 8.19302 203.504 8.22568 203.504 8.26361C203.504 8.33737 203.492 8.39217 203.467 8.42905C203.443 8.46593 203.413 8.48384 203.376 8.48384H202.316V10.9011C202.316 11.2045 202.358 11.4353 202.442 11.5944C202.525 11.7535 202.677 11.8325 202.898 11.8325C202.966 11.8325 203.027 11.8252 203.082 11.8104C203.137 11.7957 203.186 11.7798 203.229 11.7619C203.271 11.744 203.307 11.7282 203.337 11.7135C203.366 11.6987 203.392 11.6913 203.416 11.6913C203.43 11.6913 203.443 11.6945 203.454 11.6998C203.465 11.7061 203.474 11.7166 203.481 11.7324C203.488 11.7482 203.495 11.7693 203.499 11.7946C203.503 11.8199 203.505 11.8515 203.505 11.8905Z" fill="white"/>
<path d="M207.622 12.1285C207.622 12.1464 207.618 12.1622 207.609 12.1769C207.6 12.1917 207.586 12.2033 207.568 12.2128C207.55 12.2212 207.525 12.2286 207.492 12.2349C207.46 12.2412 207.419 12.2433 207.371 12.2433C207.32 12.2433 207.278 12.2402 207.245 12.2349C207.213 12.2286 207.188 12.2212 207.17 12.2128C207.151 12.2043 207.138 12.1917 207.129 12.1769C207.121 12.1622 207.116 12.1464 207.116 12.1285V9.75657C207.116 9.50895 207.098 9.30769 207.06 9.15385C207.024 8.99895 206.968 8.86618 206.894 8.7566C206.821 8.64701 206.727 8.56061 206.612 8.50055C206.498 8.44048 206.364 8.40993 206.212 8.40993C206.016 8.40993 205.821 8.48158 205.626 8.62594C205.431 8.7703 205.225 8.98209 205.011 9.26238V12.1295C205.011 12.1474 205.007 12.1632 204.998 12.178C204.99 12.1927 204.976 12.2043 204.957 12.2138C204.939 12.2223 204.914 12.2296 204.882 12.236C204.849 12.2423 204.808 12.2444 204.756 12.2444C204.708 12.2444 204.668 12.2412 204.635 12.236C204.602 12.2296 204.576 12.2223 204.556 12.2138C204.536 12.2054 204.523 12.1927 204.515 12.178C204.508 12.1632 204.505 12.1474 204.505 12.1295V6.1729C204.505 6.15499 204.508 6.13918 204.515 6.12443C204.523 6.10968 204.536 6.09703 204.556 6.08649C204.576 6.07596 204.601 6.06858 204.635 6.06437C204.667 6.06015 204.708 6.05804 204.756 6.05804C204.807 6.05804 204.849 6.06015 204.882 6.06437C204.914 6.06858 204.939 6.07596 204.957 6.08649C204.976 6.09703 204.989 6.10968 204.998 6.12443C205.006 6.13918 205.011 6.15499 205.011 6.1729V8.66914C205.22 8.42784 205.43 8.24976 205.639 8.13702C205.849 8.02321 206.058 7.96737 206.267 7.96737C206.519 7.96737 206.731 8.01162 206.904 8.10014C207.076 8.18865 207.215 8.30772 207.321 8.4584C207.427 8.60908 207.503 8.78399 207.55 8.9842C207.596 9.1844 207.62 9.4257 207.62 9.70915V12.1285H207.622Z" fill="white"/>
<path d="M212.152 9.92396C212.152 10.0304 212.124 10.1031 212.071 10.1431C212.017 10.1832 211.965 10.2032 211.914 10.2032H209.297C209.297 10.4508 209.321 10.6742 209.367 10.8744C209.414 11.0746 209.49 11.2464 209.599 11.3897C209.706 11.533 209.847 11.6426 210.018 11.7184C210.191 11.7954 210.403 11.8333 210.655 11.8333C210.833 11.8333 210.993 11.8175 211.134 11.7848C211.276 11.7522 211.398 11.7163 211.501 11.6763C211.604 11.6362 211.689 11.6004 211.756 11.5678C211.823 11.5351 211.871 11.5193 211.898 11.5193C211.915 11.5193 211.93 11.5235 211.944 11.533C211.959 11.5414 211.97 11.5562 211.979 11.5751C211.987 11.5941 211.994 11.6183 211.998 11.6478C212.002 11.6773 212.004 11.7142 212.004 11.7585C212.004 11.7795 212.003 11.7985 212 11.8185C211.997 11.8375 211.994 11.8554 211.99 11.8712C211.986 11.887 211.98 11.9028 211.971 11.9176C211.963 11.9323 211.95 11.9471 211.936 11.9618C211.922 11.9766 211.879 12.0019 211.805 12.0388C211.731 12.0756 211.635 12.1125 211.516 12.1494C211.398 12.1863 211.26 12.2189 211.103 12.2484C210.946 12.278 210.777 12.2927 210.596 12.2927C210.299 12.2927 210.037 12.2463 209.807 12.1536C209.578 12.0609 209.385 11.9239 209.231 11.7427C209.075 11.5614 208.957 11.337 208.877 11.0693C208.796 10.8017 208.755 10.4909 208.755 10.1368C208.755 9.79857 208.797 9.4951 208.881 9.22641C208.964 8.95877 209.084 8.73116 209.239 8.5436C209.394 8.35604 209.582 8.21379 209.801 8.11474C210.021 8.01569 210.264 7.96722 210.532 7.96722C210.821 7.96722 211.066 8.0178 211.271 8.1179C211.474 8.21801 211.642 8.35288 211.773 8.52253C211.905 8.69218 212.001 8.88817 212.062 9.11261C212.122 9.33599 212.153 9.57203 212.153 9.81965V9.92396H212.152ZM211.63 9.76907C211.638 9.34442 211.545 9.01356 211.35 8.77542C211.154 8.53728 210.87 8.41716 210.497 8.41716C210.305 8.41716 210.136 8.45509 209.99 8.52991C209.845 8.60472 209.721 8.70482 209.621 8.82811C209.521 8.95139 209.444 9.09575 209.389 9.25907C209.336 9.4224 209.304 9.5931 209.296 9.76907H211.63Z" fill="white"/>
<path d="M168.913 20.7604C168.811 20.2873 168.642 19.8647 168.412 19.5065C168.176 19.1408 167.869 18.8479 167.495 18.6372C167.121 18.4254 166.667 18.3179 166.145 18.3179C165.904 18.3179 165.674 18.3464 165.458 18.4022C165.242 18.4591 165.028 18.5466 164.824 18.6646C164.624 18.7794 164.421 18.9248 164.223 19.0966C164.144 19.1651 164.063 19.2388 163.98 19.3179V18.3179H162.734V28.8824H164.054V25.5569C164.114 25.6117 164.173 25.6633 164.229 25.7107C164.405 25.8593 164.585 25.9847 164.762 26.0837C164.944 26.186 165.134 26.2618 165.326 26.3103C165.516 26.3588 165.721 26.383 165.937 26.383C166.435 26.383 166.886 26.2818 167.278 26.0837C167.67 25.8846 168.004 25.6001 168.27 25.2366C168.532 24.8783 168.733 24.4389 168.867 23.93C168.998 23.4305 169.065 22.8636 169.065 22.2451C169.064 21.7214 169.014 21.223 168.913 20.7604ZM167.595 23.4147C167.529 23.7456 167.422 24.0459 167.28 24.3072C167.142 24.558 166.963 24.7634 166.745 24.9173C166.533 25.0669 166.284 25.1396 165.981 25.1396C165.65 25.1396 165.341 25.03 165.034 24.8035C164.726 24.5759 164.396 24.245 164.054 23.8214V20.9174C164.244 20.674 164.426 20.4664 164.598 20.2989C164.782 20.1197 164.959 19.9722 165.127 19.8616C165.288 19.7541 165.447 19.6772 165.598 19.6319C165.749 19.5866 165.906 19.5634 166.064 19.5634C166.377 19.5634 166.635 19.6361 166.834 19.7794C167.04 19.929 167.208 20.1313 167.332 20.3832C167.463 20.6466 167.558 20.9522 167.614 21.2936C167.671 21.6445 167.701 22.0154 167.701 22.3947C167.7 22.7329 167.664 23.0765 167.595 23.4147Z" fill="white"/>
<path d="M176.859 20.7604C176.755 20.2873 176.587 19.8647 176.357 19.5065C176.122 19.1408 175.814 18.8479 175.44 18.6371C175.066 18.4253 174.612 18.3179 174.09 18.3179C173.849 18.3179 173.618 18.3463 173.403 18.4022C173.187 18.4591 172.973 18.5465 172.769 18.6645C172.569 18.7794 172.367 18.9248 172.168 19.0966C172.089 19.1651 172.007 19.2388 171.925 19.3178V18.3179H170.678V28.8824H171.999V25.5569C172.059 25.6117 172.117 25.6633 172.174 25.7107C172.35 25.8593 172.53 25.9847 172.708 26.0837C172.89 26.1859 173.08 26.2618 173.271 26.3103C173.461 26.3587 173.666 26.383 173.882 26.383C174.38 26.383 174.832 26.2818 175.223 26.0837C175.615 25.8846 175.949 25.6001 176.215 25.2365C176.477 24.8783 176.679 24.4389 176.812 23.9299C176.944 23.4305 177.01 22.8636 177.01 22.2451C177.009 21.7214 176.959 21.2219 176.859 20.7604ZM175.54 23.4147C175.473 23.7455 175.367 24.0458 175.224 24.3072C175.087 24.5579 174.907 24.7634 174.69 24.9173C174.479 25.0669 174.229 25.1396 173.926 25.1396C173.596 25.1396 173.286 25.03 172.98 24.8035C172.67 24.5759 172.341 24.245 171.999 23.8214V20.9174C172.189 20.674 172.372 20.4664 172.544 20.2988C172.727 20.1197 172.905 19.9722 173.073 19.8616C173.233 19.7541 173.391 19.6772 173.543 19.6318C173.694 19.5865 173.851 19.5634 174.009 19.5634C174.321 19.5634 174.58 19.6361 174.778 19.7794C174.984 19.929 175.152 20.1313 175.277 20.3831C175.408 20.6466 175.502 20.9521 175.558 21.2936C175.615 21.6444 175.644 22.0153 175.644 22.3947C175.644 22.7329 175.608 23.0764 175.54 23.4147Z" fill="white"/>
<path d="M199.44 19.396C199.155 19.0462 198.795 18.7753 198.369 18.5909C197.948 18.4097 197.455 18.317 196.901 18.317C196.321 18.317 195.804 18.4202 195.365 18.6247C194.923 18.8301 194.55 19.121 194.253 19.4908C193.96 19.8575 193.738 20.2959 193.593 20.7953C193.45 21.2863 193.378 21.829 193.378 22.4085C193.378 23.0081 193.448 23.556 193.585 24.0365C193.724 24.5265 193.94 24.9501 194.225 25.2968C194.512 25.6466 194.873 25.9174 195.298 26.105C195.719 26.2894 196.213 26.3831 196.767 26.3831C197.342 26.3831 197.857 26.2788 198.297 26.0712C198.738 25.8637 199.113 25.5697 199.409 25.1967C199.702 24.8279 199.926 24.3885 200.072 23.8901C200.217 23.399 200.291 22.8564 200.291 22.2758C200.291 21.6804 200.22 21.1357 200.08 20.6552C199.937 20.1662 199.723 19.7427 199.44 19.396ZM198.917 22.3611C198.917 22.7658 198.875 23.144 198.79 23.4875C198.708 23.8205 198.581 24.1113 198.411 24.3516C198.246 24.5855 198.029 24.772 197.768 24.9048C197.506 25.0397 197.187 25.1071 196.819 25.1071C196.418 25.1071 196.082 25.0344 195.821 24.8921C195.561 24.7499 195.352 24.555 195.199 24.3137C195.04 24.0639 194.925 23.7668 194.857 23.4306C194.786 23.0819 194.75 22.7089 194.75 22.3221C194.75 21.9228 194.793 21.5466 194.878 21.2042C194.959 20.8701 195.088 20.5782 195.258 20.3359C195.423 20.0999 195.638 19.9123 195.899 19.7795C196.161 19.6447 196.481 19.5772 196.849 19.5772C197.249 19.5772 197.584 19.651 197.845 19.7953C198.105 19.9397 198.315 20.1367 198.468 20.3812C198.627 20.6341 198.742 20.9312 198.811 21.2663C198.882 21.6109 198.917 21.9797 198.917 22.3611Z" fill="white"/>
<path d="M158.18 16.0523H156.61L153.338 26.3661H154.677L155.406 23.4104H159.341L160.096 26.3661H161.452L158.18 16.0523ZM155.825 22.167L157.349 17.6403L158.909 22.167H155.825Z" fill="white"/>
<path d="M187.353 22.184C187.213 21.8721 187.024 21.596 186.792 21.3632C186.566 21.1356 186.306 20.9354 186.02 20.7689C185.746 20.6087 185.461 20.457 185.177 20.3179C184.898 20.182 184.621 20.0439 184.351 19.9069C184.094 19.7773 183.861 19.6288 183.66 19.4675C183.469 19.3147 183.313 19.1367 183.198 18.9386C183.089 18.7521 183.035 18.5224 183.035 18.2537C183.035 18.0703 183.066 17.8933 183.128 17.7289C183.189 17.5666 183.278 17.4297 183.4 17.3085C183.522 17.1884 183.68 17.0904 183.87 17.0187C184.064 16.9449 184.298 16.9081 184.565 16.9081C184.841 16.9081 185.088 16.9428 185.3 17.0113C185.521 17.0819 185.711 17.162 185.868 17.2484C186.031 17.338 186.167 17.4202 186.274 17.4918L186.82 16.3032C186.756 16.2358 186.647 16.162 186.476 16.0683C186.319 15.9829 186.14 15.9049 185.944 15.8364C185.749 15.769 185.539 15.7121 185.323 15.67C185.101 15.6257 184.88 15.6036 184.662 15.6036C184.233 15.6036 183.833 15.6647 183.473 15.7859C183.107 15.9081 182.786 16.0893 182.522 16.3222C182.255 16.5582 182.045 16.8491 181.898 17.1863C181.751 17.5224 181.677 17.9059 181.677 18.3253C181.677 18.7552 181.749 19.1356 181.892 19.4549C182.031 19.7689 182.218 20.046 182.448 20.2799C182.672 20.5075 182.929 20.7088 183.212 20.8785C183.485 21.0418 183.767 21.1946 184.052 21.3347C184.33 21.4706 184.608 21.6087 184.874 21.7457C185.129 21.8763 185.359 22.0228 185.558 22.1808C185.748 22.3315 185.901 22.5085 186.017 22.7056C186.125 22.8921 186.179 23.1218 186.179 23.3905C186.179 23.6581 186.134 23.8973 186.045 24.1028C185.957 24.3062 185.832 24.48 185.674 24.6181C185.512 24.7593 185.315 24.8699 185.089 24.9458C184.858 25.0238 184.599 25.0627 184.319 25.0627C183.969 25.0627 183.661 25.0206 183.401 24.9363C183.133 24.8499 182.9 24.7551 182.71 24.655C182.518 24.5538 182.36 24.459 182.242 24.3747L181.97 25.7993C182.125 25.8899 182.318 25.9795 182.541 26.0669C182.765 26.1533 183.021 26.2281 183.304 26.2903C183.591 26.3525 183.9 26.3841 184.221 26.3841C184.695 26.3841 185.14 26.3145 185.542 26.1786C185.951 26.0406 186.309 25.8362 186.608 25.5727C186.91 25.3061 187.147 24.9774 187.314 24.5959C187.481 24.2156 187.565 23.7814 187.565 23.3051C187.567 22.8773 187.494 22.5001 187.353 22.184Z" fill="white"/>
<path d="M191.907 25.0145C191.842 25.0419 191.764 25.0672 191.677 25.0914C191.598 25.1125 191.507 25.123 191.406 25.123C190.998 25.123 190.861 24.9502 190.793 24.8206C190.664 24.5751 190.599 24.201 190.599 23.7068V19.6774H192.205V18.4414H190.599V16.9399L189.278 17.5458V18.4414H188.561V19.6774H189.278V23.8311C189.278 24.241 189.314 24.6046 189.385 24.9101C189.46 25.2326 189.583 25.5044 189.753 25.7194C189.926 25.9386 190.149 26.104 190.418 26.2104C190.675 26.3137 190.988 26.3653 191.346 26.3653C191.453 26.3653 191.566 26.3579 191.678 26.3442C191.79 26.3306 191.898 26.3105 192.001 26.2852C192.108 26.2589 192.205 26.2252 192.289 26.1862L192.085 24.9333C192.038 24.9586 191.978 24.986 191.907 25.0145Z" fill="white"/>
<path d="M204.849 18.318C204.83 18.318 204.812 18.3169 204.795 18.3169C204.629 18.3169 204.464 18.3369 204.306 18.378C204.141 18.4202 203.972 18.4992 203.804 18.6141C203.641 18.7247 203.469 18.8786 203.294 19.0724C203.24 19.1314 203.186 19.1957 203.129 19.2663V18.3169H201.853V26.3662H203.174V21.1735C203.346 20.888 203.507 20.6425 203.65 20.4433C203.798 20.2378 203.938 20.0724 204.07 19.9502C204.194 19.8343 204.312 19.75 204.42 19.7004C204.523 19.653 204.623 19.6298 204.728 19.6298C204.758 19.6298 204.791 19.6309 204.829 19.6341L205.061 19.652V18.3232L204.849 18.318Z" fill="white"/>
<path d="M211.458 24.634C211.428 24.6466 211.397 24.6614 211.362 24.6782C211.251 24.732 211.106 24.7941 210.931 24.8616C210.759 24.928 210.552 24.9891 210.314 25.0439C210.082 25.0976 209.814 25.1239 209.517 25.1239C209.106 25.1239 208.758 25.0618 208.481 24.9395C208.213 24.8205 207.993 24.6487 207.828 24.4285C207.659 24.2041 207.536 23.928 207.461 23.6077C207.397 23.3347 207.36 23.0323 207.348 22.7036H211.734C211.869 22.7036 212.004 22.654 212.136 22.5571C212.291 22.4422 212.369 22.2515 212.369 21.9881V21.8016C212.369 21.3474 212.312 20.908 212.2 20.496C212.085 20.0746 211.901 19.6984 211.652 19.377C211.402 19.0535 211.078 18.7932 210.692 18.6036C210.306 18.4139 209.838 18.318 209.3 18.318C208.799 18.318 208.337 18.4118 207.926 18.5973C207.512 18.7838 207.153 19.0577 206.859 19.4107C206.568 19.7616 206.341 20.1915 206.185 20.6899C206.033 21.182 205.955 21.7447 205.955 22.3622C205.955 23.0039 206.03 23.5792 206.177 24.0702C206.328 24.5707 206.553 24.9975 206.846 25.3389C207.141 25.6835 207.51 25.9469 207.944 26.1218C208.371 26.2946 208.865 26.3821 209.411 26.3821C209.741 26.3821 210.054 26.3547 210.342 26.3009C210.625 26.2483 210.878 26.1871 211.093 26.1197C211.232 26.0765 211.352 26.0343 211.458 25.9911V24.634ZM207.495 20.8901C207.58 20.6299 207.705 20.3991 207.862 20.2042C208.019 20.0113 208.214 19.8533 208.443 19.7353C208.669 19.6194 208.936 19.5603 209.239 19.5603C209.835 19.5603 210.273 19.7405 210.575 20.1114C210.848 20.4455 210.996 20.908 211.015 21.4907H207.362C207.387 21.2842 207.432 21.083 207.495 20.8901Z" fill="white"/>
</svg>
