<svg width="51" height="51" viewBox="0 0 51 51" fill="none" xmlns="http://www.w3.org/2000/svg">
<path id="Vector" d="M50.417 23.5763C50.5025 18.9854 49.3911 14.4586 47.179 10.4563C49.3911 6.45392 50.5132 1.92718 50.417 -2.66376L50.4063 -2.96341L50.1071 -2.97411C45.5333 -3.05972 40.9915 -1.93606 37.0054 0.268448C33.0194 -1.95746 28.4776 -3.08112 23.9038 -2.99551C23.7328 -2.99551 23.5618 -2.99551 23.3908 -2.99551C18.988 -2.99551 14.6279 -1.87185 10.7915 0.257747C6.8054 -1.94676 2.26364 -3.07042 -2.31018 -2.98481L-2.6094 -2.97411L-2.62009 -2.67447C-2.70558 1.91648 -1.59419 6.44322 0.617917 10.4456C-1.59419 14.4479 -2.71627 18.9854 -2.62009 23.5763C-2.70558 28.1673 -1.59419 32.7047 0.617917 36.7071C-1.59419 40.7094 -2.71627 45.2469 -2.62009 49.8378L-2.6094 50.1375L-2.2995 50.1482C-2.12851 50.1482 -1.95753 50.1482 -1.78655 50.1482C2.61629 50.1482 6.9657 49.0245 10.8022 46.8949H10.8128C14.6493 49.0138 18.9987 50.1375 23.4015 50.1375C23.5725 50.1375 23.7435 50.1375 23.9145 50.1375C24.0855 50.1375 24.2565 50.1375 24.4274 50.1375C28.8303 50.1375 33.1797 49.0138 37.0161 46.8842C40.8526 49.0138 45.202 50.1375 49.6048 50.1375C49.7758 50.1375 49.9468 50.1375 50.1178 50.1375L50.4277 50.1268L50.4384 49.8271C50.5345 45.2362 49.4125 40.7094 47.2004 36.7071C49.3911 32.694 50.5132 28.1566 50.417 23.5763ZM37.668 27.6322C37.7856 27.7071 37.9138 27.782 38.0313 27.8569C38.1489 27.9318 38.2664 28.0068 38.384 28.0817C38.5122 28.1673 38.6298 28.2529 38.758 28.3385C38.8649 28.4134 38.9824 28.4883 39.0893 28.5632C39.2175 28.6488 39.3458 28.7452 39.474 28.8415C39.5809 28.9164 39.6771 28.9913 39.7839 29.0662C39.9122 29.1625 40.0404 29.2695 40.1686 29.3658C40.2648 29.4408 40.361 29.5157 40.4572 29.5906C40.5961 29.6976 40.7243 29.8153 40.8526 29.9223C40.9381 29.9972 41.0236 30.0614 41.1091 30.1363C41.2587 30.2648 41.4083 30.4039 41.5472 30.5323C41.6113 30.5965 41.6754 30.65 41.7396 30.7142C41.9533 30.9069 42.1563 31.1102 42.3594 31.3135C42.5624 31.5168 42.7548 31.7202 42.9578 31.9342C43.0326 32.0091 43.0967 32.0947 43.1716 32.1696C43.2891 32.2981 43.4173 32.4372 43.5242 32.5656C43.6097 32.6619 43.6845 32.7582 43.77 32.8545C43.8769 32.9722 43.973 33.1007 44.0799 33.2184C44.1654 33.3147 44.2402 33.4217 44.3257 33.5287C44.4219 33.6464 44.518 33.7749 44.6142 33.8926C44.6997 33.9996 44.7745 34.1066 44.8493 34.2136C44.9348 34.342 45.031 34.4598 45.1165 34.5882C45.1913 34.6952 45.2661 34.8129 45.3409 34.9199C45.4264 35.0483 45.5119 35.1661 45.5974 35.2945C45.6722 35.4122 45.747 35.5192 45.8218 35.6369C45.9073 35.7653 45.9821 35.8938 46.0569 36.0115C46.1317 36.1292 46.1958 36.2469 46.2706 36.3753C46.3348 36.4716 46.3882 36.5787 46.4523 36.675C46.3882 36.782 46.3348 36.8783 46.2706 36.9853C46.2065 37.103 46.1317 37.2207 46.0676 37.3385C45.9821 37.4776 45.8966 37.606 45.8111 37.7451C45.747 37.8521 45.6829 37.9591 45.6081 38.0662C45.5119 38.2053 45.4157 38.3551 45.3195 38.4942C45.2554 38.5905 45.1913 38.6762 45.1272 38.7725C45.0203 38.9223 44.9135 39.0721 44.7959 39.2219C44.7425 39.2968 44.6783 39.3825 44.6249 39.4574C44.5074 39.6179 44.3791 39.7784 44.2509 39.9389C44.1975 40.0031 44.1547 40.0673 44.1013 40.1316C43.9624 40.3028 43.8127 40.474 43.6738 40.6452C43.6311 40.688 43.5883 40.7415 43.5563 40.795C43.396 40.977 43.225 41.1696 43.0647 41.3515C43.0433 41.3836 43.0113 41.405 42.9899 41.4371C42.7975 41.6512 42.5945 41.8545 42.3914 42.0578C42.1884 42.2612 41.9854 42.4538 41.7823 42.6464C41.6754 42.7427 41.5686 42.839 41.4724 42.9353C41.3655 43.0317 41.2587 43.128 41.1518 43.2243C41.0343 43.3313 40.9167 43.4276 40.7991 43.5239C40.703 43.6095 40.6068 43.6952 40.4999 43.7701C40.3824 43.8664 40.2541 43.9627 40.1259 44.059C40.0297 44.1339 39.9229 44.2195 39.8267 44.2944C39.6984 44.3908 39.5702 44.4871 39.442 44.5727C39.3351 44.6476 39.2389 44.7225 39.1321 44.7974C39.0038 44.8937 38.8756 44.9793 38.7367 45.0649C38.6298 45.1399 38.5336 45.2041 38.4267 45.279C38.2985 45.3646 38.1596 45.4502 38.0207 45.5358C37.9138 45.6 37.8069 45.6749 37.7001 45.7391C37.5611 45.8248 37.4222 45.9104 37.2833 45.9853C37.1978 46.0388 37.1123 46.0816 37.0268 46.1351C36.9306 46.0816 36.8451 46.0281 36.7597 45.9746C36.6207 45.8997 36.4925 45.8141 36.3643 45.7391C36.2467 45.6642 36.1398 45.6 36.0223 45.5251C35.894 45.4395 35.7658 45.3646 35.6376 45.279C35.52 45.2041 35.4025 45.1185 35.2849 45.0435C35.1674 44.9579 35.0498 44.883 34.9323 44.7974C34.804 44.7118 34.6865 44.6155 34.5689 44.5299C34.4621 44.455 34.3552 44.3694 34.2483 44.2944C34.1201 44.1981 33.9812 44.0911 33.8529 43.9841C33.7567 43.9092 33.6713 43.8343 33.5751 43.7701C33.4255 43.6524 33.2865 43.5346 33.1476 43.4062C33.0728 43.342 32.998 43.2778 32.9232 43.2136C32.7522 43.0638 32.5919 42.9246 32.4316 42.7748C32.3889 42.732 32.3354 42.6892 32.2927 42.6464C32.079 42.4538 31.8759 42.2505 31.6729 42.0471C31.4698 41.8438 31.2668 41.6405 31.0744 41.4264C31.0531 41.405 31.0317 41.3729 30.9996 41.3515C30.8286 41.1696 30.6577 40.977 30.4974 40.795C30.4546 40.7415 30.4119 40.688 30.3691 40.6452C30.2302 40.474 30.0806 40.3135 29.9417 40.1423C29.8882 40.078 29.8348 40.0031 29.7814 39.9282C29.6638 39.7784 29.5356 39.6179 29.418 39.4681C29.3539 39.3825 29.2898 39.2968 29.2257 39.2112C29.1188 39.0721 29.0119 38.9223 28.9158 38.7832C28.841 38.6869 28.7768 38.5798 28.7127 38.4835C28.6165 38.3551 28.5311 38.216 28.4349 38.0769C28.3601 37.9592 28.2853 37.8521 28.2211 37.7344C28.1463 37.606 28.0608 37.4883 27.986 37.3599C27.9112 37.2314 27.8364 37.103 27.7616 36.9746C27.7082 36.8783 27.6441 36.782 27.5906 36.6857C28.7127 34.7166 30.0913 32.9187 31.6836 31.3242C33.2759 29.7297 35.0819 28.3492 37.0375 27.2255C37.1337 27.279 37.2299 27.3326 37.3153 27.3861C37.4115 27.4717 37.5505 27.5466 37.668 27.6322ZM37.0054 26.5085L36.8451 26.5941L36.3536 26.8724H36.3643C34.4727 27.9853 32.7415 29.3337 31.192 30.8855C29.6424 32.4372 28.3066 34.1708 27.1846 36.065V36.0543L26.9067 36.5466L26.8212 36.7071C25.3465 39.3717 24.3633 42.2719 23.8931 45.2576C23.4229 42.2612 22.4397 39.3717 20.965 36.7071V36.6964L20.8795 36.5358C20.8047 36.3967 20.7299 36.2683 20.6444 36.1292L20.6017 36.0436C19.4903 34.1494 18.1438 32.4158 16.5942 30.8748C15.0554 29.3337 13.3135 27.9853 11.4327 26.8617H11.4433L10.9518 26.5834C10.909 26.562 10.8556 26.5299 10.8128 26.5085L10.7915 26.4978C8.14121 25.0317 5.25586 24.0472 2.27432 23.5763C5.31998 23.0948 8.25877 22.0781 10.9518 20.5585L11.4433 20.2803L11.4327 20.2696C13.3242 19.1566 15.0554 17.8082 16.6049 16.2565C18.1545 14.7048 19.4903 12.9711 20.6124 11.077L20.623 11.0877L20.9009 10.5954C22.4184 7.89862 23.4336 4.95571 23.9145 1.91648C24.3954 4.95571 25.4106 7.89862 26.9281 10.5954L27.2059 11.0877L27.2166 11.077C28.328 12.9711 29.6745 14.7048 31.224 16.2565C32.7736 17.8082 34.5048 19.1459 36.3963 20.2696H36.3856L36.8451 20.5478L36.9948 20.6334C39.645 22.0995 42.5517 23.0948 45.544 23.5656C42.5624 24.0472 39.6664 25.0317 37.0054 26.5085ZM1.74 9.79279C1.82549 9.66437 1.9003 9.52525 1.98579 9.39683C2.06059 9.28982 2.12471 9.1721 2.19952 9.06509C2.28501 8.92597 2.38119 8.79755 2.46668 8.66913C2.54149 8.56211 2.60561 8.4658 2.68041 8.35879C2.77659 8.23037 2.87277 8.09125 2.96895 7.96283C3.04375 7.86652 3.10787 7.7595 3.18268 7.66319C3.27886 7.53477 3.38572 7.40635 3.49259 7.26723C3.56739 7.17092 3.6422 7.07461 3.717 6.98899C3.82387 6.86058 3.93073 6.73216 4.04828 6.60374C4.12309 6.51813 4.19789 6.42181 4.2727 6.3362C4.39025 6.19708 4.51849 6.06866 4.63604 5.92955C4.71085 5.85463 4.77497 5.76902 4.84977 5.69411C5.02075 5.51219 5.20242 5.31956 5.38409 5.13763C5.40547 5.11623 5.41616 5.10553 5.43753 5.08413C5.4589 5.06272 5.46959 5.05202 5.49096 5.03062C5.67263 4.84869 5.86499 4.66677 6.04666 4.48484C6.12147 4.40993 6.19627 4.34572 6.27108 4.28151C6.41 4.1531 6.53824 4.03538 6.67716 3.91766C6.76266 3.84275 6.85883 3.76784 6.94433 3.69293C7.07256 3.58592 7.2008 3.4789 7.32904 3.37188C7.42522 3.29697 7.52139 3.22206 7.61757 3.13645C7.74581 3.04014 7.87405 2.93312 8.00229 2.83681C8.09846 2.7619 8.20533 2.68699 8.3122 2.61208C8.44043 2.51576 8.56867 2.41945 8.69691 2.33384C8.80378 2.25893 8.91064 2.18402 9.0175 2.10911C9.14574 2.0235 9.27398 1.92718 9.40222 1.84157C9.50908 1.76666 9.62664 1.70245 9.7335 1.62754C9.86174 1.54193 9.98998 1.45632 10.1289 1.38141C10.2358 1.3172 10.3533 1.24229 10.4709 1.17808C10.5777 1.11387 10.6846 1.04966 10.7915 0.985449C10.9197 1.06036 11.0479 1.13527 11.1762 1.21018C11.2617 1.26369 11.3472 1.30649 11.4327 1.36C11.6143 1.46702 11.796 1.58473 11.9777 1.70245C12.0311 1.74526 12.0952 1.77736 12.1593 1.82017C12.3624 1.95929 12.5654 2.0877 12.7685 2.22682C12.8005 2.24823 12.8326 2.26963 12.8646 2.29103C13.0891 2.45156 13.3135 2.61208 13.5379 2.7833C13.5486 2.7833 13.5486 2.794 13.5593 2.794C14.4783 3.4896 15.3546 4.24941 16.1668 5.07342C16.9789 5.88674 17.7377 6.76426 18.4323 7.68459C18.4537 7.7167 18.4751 7.7488 18.4964 7.7702C18.646 7.96283 18.7956 8.16616 18.9346 8.36949C18.9773 8.423 19.0094 8.4765 19.0414 8.53001C19.1697 8.71194 19.2872 8.89386 19.4155 9.07579C19.4689 9.1507 19.5116 9.22561 19.5544 9.30052C19.6613 9.46104 19.7681 9.63227 19.8643 9.79279C19.9177 9.8891 19.9712 9.98542 20.0353 10.0817C20.1101 10.1994 20.1742 10.3279 20.249 10.4456C19.1269 12.4147 17.7484 14.2125 16.1561 15.807C14.5638 17.4016 12.7578 18.7821 10.8022 19.9057C10.6739 19.8308 10.535 19.7559 10.4067 19.6703C10.3213 19.6168 10.2465 19.574 10.161 19.5205C9.98998 19.4134 9.80831 19.3064 9.63732 19.1887C9.5732 19.1459 9.50909 19.1031 9.44497 19.0603C9.25261 18.9319 9.06025 18.8035 8.87858 18.675C8.83583 18.6429 8.7824 18.6108 8.73966 18.5787C8.52593 18.4289 8.32288 18.2791 8.10915 18.1186C8.08778 18.1079 8.06641 18.0865 8.04503 18.0758C7.12599 17.3802 6.2497 16.6203 5.43753 15.7963C4.62536 14.983 3.86661 14.1055 3.1613 13.1852C3.15062 13.1638 3.12924 13.1531 3.11856 13.1317C2.95826 12.9176 2.80865 12.7143 2.65904 12.5003C2.62698 12.4575 2.60561 12.4147 2.57355 12.3719C2.43462 12.1792 2.30638 11.9866 2.17815 11.794C2.1354 11.7298 2.10334 11.6763 2.06059 11.612C1.94304 11.4301 1.82549 11.2482 1.71863 11.0663C1.67588 10.9914 1.63314 10.9164 1.59039 10.8415C1.5049 10.7024 1.43009 10.5633 1.35529 10.4349C1.4194 10.3279 1.47284 10.2316 1.53696 10.1245C1.60108 10.0175 1.66519 9.8998 1.74 9.79279ZM37.668 1.38141C37.8069 1.46702 37.9352 1.55263 38.0741 1.63824C38.181 1.70245 38.2878 1.77736 38.3947 1.84157C38.5336 1.93788 38.6725 2.0235 38.8008 2.11981C38.8969 2.18402 39.0038 2.25893 39.1 2.32314C39.2389 2.41945 39.3778 2.52647 39.5168 2.62278C39.6129 2.68699 39.7091 2.7619 39.7946 2.82611C39.9335 2.93312 40.0725 3.04014 40.2007 3.14715C40.2862 3.22206 40.3824 3.28627 40.4679 3.35048C40.6068 3.4682 40.7457 3.57521 40.874 3.69293C40.9594 3.75714 41.0343 3.83205 41.1197 3.89626C41.2694 4.02468 41.4083 4.1531 41.5472 4.28151C41.6113 4.34572 41.6861 4.40993 41.7502 4.46344C41.9533 4.64536 42.1456 4.83799 42.338 5.03062C42.3487 5.04132 42.3594 5.05202 42.3701 5.06272C42.3807 5.07342 42.3914 5.08413 42.4021 5.09483C42.5945 5.28745 42.7868 5.48008 42.9685 5.68341C43.0326 5.74762 43.0967 5.82253 43.1609 5.89744C43.2891 6.03656 43.4173 6.17568 43.5456 6.3255C43.6204 6.40041 43.6845 6.48602 43.7486 6.57163C43.8662 6.71075 43.9837 6.84987 44.0906 6.98899C44.1654 7.07461 44.2295 7.16022 44.2936 7.25653C44.4005 7.39565 44.5074 7.52407 44.6142 7.66319C44.689 7.7595 44.7532 7.85582 44.8173 7.94143C44.9135 8.08055 45.0203 8.20897 45.1165 8.34809C45.1913 8.4444 45.2554 8.55141 45.3195 8.64773C45.4157 8.78685 45.5012 8.91527 45.5974 9.05438C45.6722 9.1614 45.7363 9.27912 45.8111 9.38613C45.8966 9.51455 45.9821 9.64297 46.0569 9.78209C46.1317 9.8998 46.1958 10.0282 46.2706 10.1459C46.3348 10.2423 46.3882 10.3493 46.4416 10.4456C46.3775 10.5526 46.3134 10.6596 46.2493 10.7666C46.1851 10.8843 46.121 10.9914 46.0462 11.0984C45.9607 11.2268 45.8859 11.3552 45.8004 11.4836C45.7256 11.5906 45.6615 11.7084 45.5867 11.8154C45.5012 11.9438 45.4157 12.0722 45.3302 12.1899C45.2554 12.2969 45.1806 12.4147 45.1058 12.5217C45.0203 12.6501 44.9241 12.7678 44.8386 12.8855C44.7638 12.9925 44.6784 13.0996 44.6035 13.2066C44.5074 13.3243 44.4112 13.4527 44.315 13.5704C44.2295 13.6774 44.1547 13.7737 44.0692 13.8808C43.973 14.0092 43.8662 14.1269 43.7593 14.2446C43.6738 14.3409 43.599 14.4372 43.5135 14.5336C43.396 14.662 43.2784 14.8011 43.1609 14.9295C43.0861 15.0044 43.0219 15.09 42.9471 15.1649C42.7655 15.3683 42.5731 15.5609 42.3808 15.7535C42.3701 15.7642 42.3594 15.7749 42.3594 15.7749C42.3487 15.7856 42.3487 15.7856 42.338 15.7963C42.1456 15.989 41.9426 16.1816 41.7502 16.3742C41.6754 16.4384 41.6006 16.5133 41.5258 16.5775C41.3869 16.706 41.2587 16.8237 41.1197 16.9521C41.0343 17.027 40.9381 17.1126 40.8419 17.1875C40.7137 17.2945 40.5961 17.4016 40.4679 17.5086C40.3717 17.5942 40.2648 17.6691 40.158 17.7547C40.0404 17.851 39.9122 17.9473 39.7946 18.0436C39.6878 18.1293 39.5809 18.2042 39.4633 18.2791C39.3458 18.3647 39.2175 18.461 39.1 18.5466C38.9824 18.6215 38.8756 18.7071 38.758 18.7821C38.6405 18.8677 38.5122 18.9533 38.3947 19.0282C38.2771 19.1031 38.1596 19.178 38.042 19.2529C37.9138 19.3278 37.7962 19.4134 37.668 19.4883C37.5505 19.5633 37.4222 19.6275 37.3047 19.7024C37.2085 19.7666 37.1016 19.8201 36.9948 19.8843C35.0284 18.7606 33.2331 17.3802 31.6408 15.7856C30.0485 14.1911 28.67 12.3826 27.5479 10.4242C27.612 10.3065 27.6868 10.1887 27.7616 10.071C27.8151 9.97471 27.8792 9.8784 27.9326 9.78209C28.0395 9.61086 28.1357 9.45034 28.2425 9.27912C28.2853 9.20421 28.3387 9.1293 28.3814 9.06509C28.5097 8.87246 28.6379 8.69053 28.7662 8.50861C28.7982 8.4658 28.8303 8.41229 28.8623 8.36949C29.0119 8.15546 29.1616 7.94143 29.3218 7.7381C29.3325 7.7167 29.3539 7.69529 29.3646 7.68459C30.0592 6.76426 30.818 5.88674 31.6408 5.07342C32.453 4.26011 33.3293 3.5003 34.2483 2.794C34.259 2.7833 34.2804 2.7726 34.2911 2.7619C34.5048 2.60138 34.7185 2.44085 34.9323 2.29103C34.975 2.25893 35.0178 2.23753 35.0605 2.20542C35.2529 2.077 35.4452 1.93788 35.6376 1.80947C35.7017 1.76666 35.7658 1.72385 35.8299 1.68105C36.0009 1.57403 36.1826 1.45632 36.3536 1.3493C36.4391 1.29579 36.5246 1.25299 36.61 1.19948C36.7383 1.12457 36.8665 1.04966 36.9948 0.974748C37.1016 1.03896 37.2085 1.09246 37.3153 1.15667C37.4329 1.24229 37.5505 1.30649 37.668 1.38141ZM20.6017 9.79279C20.591 9.77139 20.5803 9.74998 20.5696 9.73928C20.4414 9.53595 20.3238 9.32192 20.1956 9.11859C20.1742 9.08649 20.1635 9.06509 20.1421 9.04368C20.0139 8.85106 19.8964 8.65843 19.7574 8.4658C19.7361 8.4444 19.7254 8.41229 19.704 8.39089C19.5758 8.19826 19.4475 8.01634 19.3086 7.82371C19.2765 7.7809 19.2552 7.7381 19.2231 7.70599C19.0949 7.52407 18.9666 7.34214 18.8277 7.17092C18.785 7.11741 18.7529 7.07461 18.7102 7.0211C18.5819 6.84987 18.443 6.68935 18.3148 6.51813C18.272 6.46462 18.2293 6.41111 18.1865 6.36831C18.0476 6.20778 17.9087 6.04726 17.7697 5.88674C17.727 5.83323 17.6843 5.79043 17.6415 5.73692C17.5026 5.5764 17.353 5.41587 17.2141 5.26605C17.1713 5.22325 17.1286 5.18044 17.0858 5.13763C16.9576 4.98781 16.8187 4.84869 16.6797 4.70957C16.6584 4.68817 16.637 4.65607 16.6049 4.63466C16.5835 4.61326 16.5515 4.59186 16.5301 4.55975C16.3912 4.42063 16.2523 4.28151 16.1133 4.15309C16.0706 4.11029 16.0278 4.06748 15.9744 4.02468C15.8248 3.87486 15.6645 3.73574 15.5042 3.59662C15.4508 3.55381 15.3973 3.511 15.3546 3.4575C15.1943 3.31838 15.034 3.17926 14.8737 3.05084C14.8203 3.00803 14.7668 2.96523 14.7134 2.92242C14.5531 2.7833 14.3821 2.65488 14.2111 2.52647C14.1577 2.48366 14.115 2.45156 14.0615 2.40875C13.8905 2.26963 13.7089 2.14121 13.5379 2.01279C13.4951 1.98069 13.4524 1.95929 13.4203 1.92718C13.2387 1.78806 13.0463 1.65964 12.854 1.53123C12.8326 1.50982 12.8005 1.49912 12.7792 1.47772C12.5868 1.3493 12.3944 1.22088 12.2021 1.09246C12.1807 1.07106 12.1486 1.06036 12.1273 1.03896C11.9242 0.910539 11.7212 0.782121 11.5075 0.664404C11.4861 0.653703 11.4647 0.643001 11.454 0.6323C15.1729 -1.34748 19.3513 -2.38552 23.5832 -2.35342C23.6153 1.89508 22.5894 6.06866 20.6017 9.79279ZM36.2894 0.675106C36.0864 0.792822 35.8834 0.92124 35.6803 1.04966C35.6483 1.07106 35.6162 1.09246 35.5841 1.11387C35.4025 1.23158 35.2101 1.3493 35.0284 1.47772C34.9964 1.49912 34.9536 1.52052 34.9216 1.55263C34.7399 1.68105 34.5582 1.79876 34.3873 1.92718C34.3445 1.95929 34.3018 1.99139 34.259 2.0235C34.088 2.15191 33.9064 2.28033 33.7354 2.41945C33.6819 2.46226 33.6392 2.49436 33.5858 2.53717C33.4148 2.66559 33.2545 2.80471 33.0835 2.93312C33.0301 2.97593 32.9766 3.01874 32.9339 3.06154C32.7736 3.20066 32.6133 3.33978 32.453 3.4789C32.3996 3.52171 32.3568 3.56451 32.3034 3.60732C32.1431 3.74644 31.9828 3.89626 31.8225 4.04608C31.7797 4.08889 31.737 4.12099 31.6943 4.1638C31.5446 4.30292 31.4057 4.44204 31.2668 4.58116C31.2454 4.60256 31.224 4.62396 31.192 4.64536C31.1706 4.66677 31.1492 4.68817 31.1279 4.72027C30.9889 4.84869 30.85 4.98781 30.7111 5.13763C30.6684 5.18044 30.6363 5.22325 30.5935 5.25535C30.4439 5.41587 30.2943 5.5764 30.1554 5.73692C30.1127 5.77972 30.0699 5.82253 30.0378 5.87604C29.8989 6.03656 29.7493 6.20778 29.6104 6.36831C29.5676 6.41111 29.5356 6.46462 29.4928 6.50743C29.3539 6.67865 29.215 6.84987 29.0867 7.0211C29.0547 7.0639 29.0226 7.10671 28.9799 7.14952C28.841 7.34214 28.7127 7.52407 28.5738 7.70599C28.5524 7.7381 28.5204 7.78091 28.499 7.81301C28.3601 8.00564 28.2211 8.19826 28.0822 8.40159C28.0715 8.41229 28.0608 8.4337 28.0502 8.4444C27.9112 8.64773 27.783 8.85106 27.6441 9.05438C27.6334 9.07579 27.6227 9.08649 27.612 9.10789C27.4731 9.32192 27.3448 9.53595 27.2166 9.76068C27.2059 9.77139 27.2059 9.78209 27.1952 9.79279C25.2182 6.06866 24.1923 1.89508 24.2244 -2.35342C28.4562 -2.38552 32.6347 -1.35818 36.3536 0.6323C36.3322 0.643001 36.3108 0.664404 36.2894 0.675106ZM10.1396 26.8724C8.25876 27.9853 6.52755 29.3337 4.98869 30.8748C3.44984 32.4158 2.10334 34.1494 0.991945 36.0329C-0.985058 32.3088 -2.01096 28.1245 -1.9789 23.8867C2.25295 23.8653 6.43137 24.8926 10.1396 26.8724ZM16.1561 42.0578C14.5638 43.6523 12.7578 45.0328 10.8022 46.1565C8.83584 45.0328 7.0405 43.6523 5.44821 42.0578C3.85593 40.4633 2.47737 38.6547 1.35529 36.6964C2.47737 34.7273 3.85593 32.9294 5.44821 31.3349C7.0405 29.7404 8.84652 28.3599 10.8022 27.2362C12.7685 28.3599 14.5638 29.7404 16.1561 31.3349C17.7484 32.9294 19.1269 34.738 20.249 36.6964C19.1269 38.6655 17.7484 40.4633 16.1561 42.0578ZM1.03469 11.1626C1.15224 11.3659 1.28048 11.5692 1.40872 11.7726C1.43009 11.8047 1.45146 11.8368 1.47284 11.8689C1.59039 12.0508 1.70794 12.2327 1.83618 12.4147C1.85755 12.4575 1.88961 12.4896 1.91098 12.5324C2.02854 12.7143 2.15677 12.8855 2.28501 13.0567C2.31707 13.0996 2.34913 13.1531 2.38119 13.1959C2.50943 13.3671 2.63766 13.5383 2.7659 13.7095C2.80865 13.763 2.8514 13.8166 2.89414 13.8701C3.02238 14.0306 3.15062 14.2018 3.28954 14.3623C3.33229 14.4158 3.37503 14.4693 3.42847 14.5229C3.56739 14.6834 3.69563 14.8439 3.83455 15.0044C3.8773 15.0579 3.92005 15.1007 3.97348 15.1542C4.1124 15.3148 4.26201 15.4753 4.40094 15.6251C4.44368 15.6679 4.48643 15.7107 4.52918 15.7535C4.6681 15.8926 4.79634 16.0425 4.93526 16.1816C4.95664 16.203 4.97801 16.2351 5.01007 16.2565C5.03144 16.2779 5.0635 16.2993 5.08487 16.3314C5.2238 16.4705 5.36272 16.6096 5.51233 16.7381C5.55508 16.7809 5.59783 16.8237 5.64057 16.8665C5.80087 17.0163 5.95048 17.1554 6.11078 17.2945C6.16421 17.3373 6.20696 17.3802 6.26039 17.4337C6.42069 17.5728 6.58098 17.7119 6.74128 17.8403C6.79471 17.8831 6.84815 17.9259 6.90158 17.9687C7.06188 18.1079 7.23286 18.2363 7.39316 18.3647C7.44659 18.4075 7.48934 18.4396 7.54277 18.4824C7.71375 18.6108 7.89542 18.7499 8.06641 18.8784C8.10915 18.9105 8.1519 18.9426 8.19464 18.9747C8.37632 19.1031 8.55799 19.2422 8.75034 19.3599C8.7824 19.3813 8.80378 19.4027 8.83584 19.4134C9.02819 19.5419 9.20986 19.6703 9.40222 19.788C9.43428 19.8094 9.45565 19.8201 9.48771 19.8415C9.69075 19.9699 9.8938 20.0983 10.0968 20.2161C10.1182 20.2268 10.1396 20.2375 10.161 20.2482C6.50618 22.1958 2.39188 23.2339 -1.77586 23.2339C-1.83998 23.2339 -1.90409 23.2339 -1.96821 23.2339C-2.00027 18.9961 -0.974371 14.8118 1.01332 11.0877C1.00263 11.1198 1.024 11.1412 1.03469 11.1626ZM4.98869 42.518C6.52755 44.059 8.25877 45.4074 10.1503 46.5204C6.49549 48.468 2.38119 49.4954 -1.78655 49.4954C-1.85066 49.4954 -1.91478 49.4954 -1.9789 49.4954C-2.01096 45.2576 -0.985058 41.0733 0.991945 37.3492C2.10334 39.2326 3.44984 40.9663 4.98869 42.518ZM49.5941 23.2553C45.4264 23.2553 41.3121 22.2279 37.6466 20.2696C37.668 20.2589 37.6894 20.2482 37.7108 20.2375C37.9245 20.109 38.1275 19.9913 38.3306 19.8522C38.3519 19.8415 38.3733 19.8308 38.384 19.8201C38.5977 19.681 38.8008 19.5526 39.0038 19.4134C39.0145 19.4027 39.0252 19.4027 39.0359 19.392C39.2389 19.2529 39.4526 19.1031 39.6557 18.9533C39.6771 18.9319 39.6984 18.9212 39.7305 18.8998C39.9229 18.7606 40.1152 18.6108 40.3076 18.461C40.3396 18.4396 40.361 18.4182 40.3931 18.3968C40.5854 18.247 40.7671 18.0972 40.9488 17.9473C40.9808 17.9259 41.0022 17.9045 41.0343 17.8724C41.2159 17.7226 41.3976 17.5621 41.5793 17.4016C41.6006 17.3802 41.622 17.3588 41.6541 17.3373C41.8357 17.1768 42.0174 17.0056 42.1991 16.8344C42.2098 16.8237 42.2311 16.813 42.2418 16.7916C42.4342 16.6096 42.6159 16.4277 42.7975 16.2458C42.9792 16.0639 43.1609 15.8712 43.3425 15.6786C43.3532 15.6679 43.3639 15.6572 43.3746 15.6465C43.5456 15.4646 43.7166 15.2827 43.8769 15.09C43.8982 15.0686 43.9196 15.0472 43.9303 15.0258C44.0906 14.8439 44.2509 14.662 44.4005 14.4693C44.4219 14.4372 44.4432 14.4158 44.4646 14.3837C44.6142 14.2018 44.7638 14.0092 44.9135 13.8273C44.9348 13.7952 44.9562 13.7737 44.9776 13.7416C45.1272 13.549 45.2661 13.3564 45.4157 13.1638C45.4371 13.1424 45.4478 13.1103 45.4692 13.0889C45.6188 12.8855 45.7577 12.6822 45.8966 12.4789C45.9073 12.4682 45.918 12.4575 45.918 12.4361C46.0569 12.2327 46.1851 12.0294 46.3134 11.8261C46.3241 11.8047 46.3454 11.7833 46.3561 11.7512C46.4844 11.5478 46.6126 11.3445 46.7302 11.1412C46.7408 11.1198 46.7622 11.0984 46.7729 11.077C48.7606 14.8118 49.7865 18.9961 49.7544 23.2339C49.7224 23.2553 49.6583 23.2553 49.5941 23.2553ZM49.7972 -2.35342C49.8292 1.88438 48.8033 6.06866 46.8157 9.80349C46.805 9.78209 46.7836 9.76068 46.7729 9.73928C46.6554 9.53595 46.5271 9.33262 46.3989 9.12929C46.3882 9.10789 46.3668 9.07579 46.3561 9.05438C46.2279 8.85106 46.0997 8.64773 45.9607 8.4551C45.95 8.4444 45.9394 8.423 45.9287 8.41229C45.7897 8.20897 45.6508 8.00564 45.5012 7.81301C45.4798 7.78091 45.4585 7.7595 45.4371 7.7274C45.2982 7.53477 45.1592 7.34214 45.0096 7.16022C44.9883 7.12811 44.9562 7.09601 44.9348 7.0639C44.7852 6.88198 44.6463 6.68935 44.4967 6.50743C44.4753 6.47532 44.4432 6.44322 44.4219 6.41111C44.2723 6.22919 44.112 6.04726 43.9623 5.86534C43.941 5.84393 43.9196 5.81183 43.8875 5.79043C43.7272 5.6085 43.5563 5.42657 43.396 5.24465C43.3853 5.22325 43.3639 5.21254 43.3532 5.19114C43.1715 4.99851 43.0006 4.81659 42.8189 4.63466C42.6372 4.45274 42.4556 4.27081 42.2632 4.09959C42.2418 4.07818 42.2311 4.06748 42.2098 4.04608C42.0281 3.87486 41.8571 3.71433 41.6754 3.55381C41.6434 3.53241 41.622 3.5003 41.59 3.4789C41.4083 3.31838 41.2373 3.16856 41.0556 3.01874C41.0236 2.99733 40.9915 2.96523 40.9594 2.94383C40.7778 2.794 40.5961 2.64418 40.4038 2.50506C40.3717 2.48366 40.3396 2.46226 40.3076 2.43015C40.1152 2.28033 39.9229 2.14121 39.7305 1.99139C39.7091 1.96999 39.6878 1.95929 39.6557 1.93788C39.4526 1.78806 39.2496 1.64894 39.0359 1.49912C39.0252 1.49912 39.0252 1.48842 39.0145 1.48842C38.8008 1.3493 38.587 1.19948 38.3733 1.07106C38.3626 1.06036 38.3413 1.04966 38.3306 1.04966C38.1168 0.92124 37.9031 0.782121 37.6894 0.653703C37.668 0.643001 37.6573 0.6323 37.6359 0.621598C41.3655 -1.35818 45.5653 -2.38552 49.7972 -2.35342ZM-1.79723 -2.35342C2.3705 -2.35342 6.48481 -1.32608 10.1503 0.6323C10.1289 0.643001 10.1075 0.653703 10.0968 0.664404C9.88311 0.792822 9.68007 0.92124 9.46634 1.04966C9.44497 1.06036 9.42359 1.07106 9.4129 1.08176C9.19917 1.21018 8.99613 1.3493 8.79309 1.48842C8.7824 1.49912 8.77172 1.49912 8.76103 1.50982C8.55799 1.64894 8.35494 1.79876 8.1519 1.93788C8.13052 1.95929 8.09846 1.96999 8.07709 1.99139C7.88474 2.13051 7.69238 2.28033 7.50002 2.43015C7.46797 2.45156 7.4359 2.47296 7.41453 2.49436C7.22217 2.64418 7.0405 2.794 6.85883 2.94383C6.82677 2.96523 6.79471 2.99733 6.77334 3.01874C6.59167 3.16856 6.41 3.32908 6.22833 3.4896C6.20696 3.511 6.1749 3.53241 6.15352 3.55381C5.97185 3.71433 5.79018 3.88556 5.60851 4.04608C5.59783 4.05678 5.57645 4.07818 5.56577 4.08889C5.37341 4.27081 5.19174 4.44204 5.01007 4.62396C4.8284 4.80589 4.64673 4.98781 4.47574 5.18044C4.45437 5.20184 4.44368 5.21254 4.42231 5.23395C4.26201 5.41587 4.09103 5.5871 3.93073 5.76902C3.90936 5.80113 3.8773 5.82253 3.85593 5.85464C3.70632 6.03656 3.54602 6.20778 3.39641 6.38971C3.36435 6.42181 3.34297 6.45392 3.31091 6.48602C3.1613 6.66795 3.02238 6.84987 2.87277 7.0318C2.84071 7.0639 2.81934 7.09601 2.79796 7.13881C2.65904 7.32074 2.50943 7.51337 2.3705 7.70599C2.34913 7.7381 2.32776 7.7702 2.30639 7.79161C2.16746 7.99494 2.01785 8.18756 1.88961 8.39089C1.87892 8.40159 1.86824 8.423 1.85755 8.4337C1.71863 8.63703 1.59039 8.82965 1.46215 9.03298C1.45146 9.05438 1.43009 9.07579 1.4194 9.10789C1.29117 9.31122 1.16293 9.51455 1.04538 9.71788C1.03469 9.73928 1.01332 9.76068 1.00263 9.78209C-0.985057 6.04726 -2.01096 1.86297 -1.9789 -2.37482C-1.92547 -2.35342 -1.86135 -2.35342 -1.79723 -2.35342ZM11.4433 46.5204C13.3242 45.4074 15.0661 44.059 16.6049 42.518C18.1438 40.977 19.4903 39.2326 20.6017 37.3492C22.5894 41.0733 23.6153 45.2576 23.5832 49.5061C19.362 49.5275 15.1622 48.5001 11.4433 46.5204ZM24.4167 49.4954C24.3526 49.4954 24.2885 49.4954 24.2244 49.4954C24.1923 45.2469 25.2182 41.0626 27.2059 37.3385C27.2166 37.3492 27.2273 37.3706 27.2273 37.3813C27.3555 37.5953 27.4838 37.82 27.6227 38.0234C27.6334 38.0341 27.6441 38.0448 27.6441 38.0662C27.783 38.2802 27.9219 38.4942 28.0608 38.7083C28.0608 38.719 28.0715 38.719 28.0715 38.7297C28.2105 38.933 28.3601 39.147 28.499 39.3503C28.5204 39.3717 28.531 39.4039 28.5524 39.4253C28.6913 39.6179 28.841 39.8105 28.9799 40.0031C29.0013 40.0352 29.0333 40.0673 29.0547 40.0995C29.1936 40.2814 29.3432 40.4633 29.4928 40.6452C29.5249 40.6773 29.5463 40.7094 29.5783 40.7415C29.7279 40.9235 29.8776 41.1054 30.0378 41.2766C30.0592 41.3087 30.0913 41.3408 30.1127 41.3622C30.2729 41.5442 30.4332 41.7154 30.5935 41.8973C30.6149 41.9187 30.6363 41.9401 30.6577 41.9615C30.8286 42.1434 30.9996 42.3147 31.1706 42.4859C31.1813 42.4966 31.1813 42.4966 31.192 42.5073C31.2027 42.518 31.2027 42.518 31.2134 42.5287C31.3843 42.6999 31.566 42.8711 31.737 43.0424C31.7584 43.0638 31.7797 43.0852 31.8011 43.1066C31.9828 43.2671 32.1538 43.4383 32.3354 43.5988C32.3568 43.6202 32.3889 43.6417 32.4102 43.6738C32.5919 43.8343 32.7736 43.9841 32.9553 44.1446C32.9873 44.166 33.0087 44.1874 33.0408 44.2088C33.2331 44.3587 33.4148 44.5192 33.6071 44.6583C33.6285 44.6797 33.6606 44.6904 33.6819 44.7118C33.8743 44.8616 34.0773 45.0114 34.2804 45.1613C34.3018 45.172 34.3124 45.1827 34.3338 45.1934C34.5475 45.3432 34.7506 45.493 34.9643 45.6428C34.9643 45.6428 34.9643 45.6428 34.975 45.6428C35.1887 45.7927 35.4025 45.9318 35.6162 46.0709C35.6376 46.0816 35.6483 46.0923 35.6696 46.103C35.8727 46.2314 36.0757 46.3598 36.2788 46.4775C36.3001 46.4883 36.3215 46.5097 36.3536 46.5204C32.6988 48.468 28.5845 49.4954 24.4167 49.4954ZM37.6573 46.5204C37.6787 46.5097 37.7001 46.499 37.7108 46.4883C37.9245 46.3598 38.1382 46.2314 38.3413 46.103C38.3519 46.0923 38.3626 46.0923 38.3733 46.0816C38.8221 45.8034 39.2496 45.5037 39.6771 45.1934C39.6984 45.172 39.7091 45.1613 39.7198 45.1613C39.9229 45.0114 40.1259 44.8616 40.3289 44.7011C40.3503 44.6904 40.3717 44.669 40.3931 44.6583C40.5854 44.5085 40.7778 44.3479 40.9701 44.1981C40.9915 44.1767 41.0129 44.1553 41.0449 44.1446C41.2373 43.9841 41.419 43.8236 41.6006 43.6631C41.622 43.6416 41.6434 43.6202 41.6648 43.5988C41.8464 43.4383 42.0388 43.2671 42.2098 43.0959C42.2311 43.0852 42.2418 43.0638 42.2632 43.0531C42.4449 42.8818 42.6265 42.6999 42.8082 42.518C42.8082 42.518 42.8082 42.518 42.8189 42.5073C42.8189 42.5073 42.8189 42.5073 42.8296 42.4966C43.0113 42.3147 43.1822 42.1434 43.3532 41.9615C43.3746 41.9401 43.396 41.9187 43.4067 41.8973C43.567 41.7261 43.7272 41.5442 43.8875 41.3622C43.9196 41.3301 43.941 41.298 43.973 41.2659C44.1227 41.0947 44.2829 40.9128 44.4219 40.7308C44.4539 40.6987 44.4753 40.6559 44.5074 40.6238C44.657 40.4419 44.7959 40.26 44.9348 40.078C44.9669 40.0459 44.9883 40.0031 45.0203 39.971C45.1592 39.7891 45.2982 39.5965 45.4371 39.4146C45.4585 39.3825 45.4798 39.3503 45.5012 39.3182C45.6401 39.1256 45.7791 38.9223 45.918 38.719C45.9287 38.6976 45.9394 38.6869 45.95 38.6655C46.0783 38.4728 46.2065 38.2695 46.3348 38.0769C46.3561 38.0555 46.3668 38.0234 46.3882 38.002C46.5164 37.7986 46.634 37.5953 46.7622 37.392C46.7729 37.3706 46.7943 37.3492 46.805 37.3278C48.7926 41.0626 49.8186 45.2469 49.7865 49.4847C45.5546 49.5275 41.3655 48.5001 37.6573 46.5204ZM46.8157 36.0436C46.805 36.0222 46.7836 36.0008 46.7729 35.9794C46.6554 35.776 46.5271 35.5727 46.3989 35.3694C46.3882 35.348 46.3668 35.3159 46.3561 35.2945C46.2279 35.0911 46.0997 34.8985 45.9607 34.6952C45.95 34.6845 45.9394 34.6631 45.9287 34.6524C45.7897 34.4491 45.6508 34.2457 45.5119 34.0531C45.4905 34.021 45.4692 33.9996 45.4478 33.9675C45.3089 33.7749 45.1699 33.5822 45.0203 33.4003C44.9989 33.3682 44.9669 33.3361 44.9455 33.304C44.8066 33.1221 44.657 32.9401 44.5074 32.7582C44.4753 32.7261 44.4539 32.694 44.4219 32.6619C44.2723 32.48 44.1226 32.2981 43.9623 32.1268C43.941 32.0947 43.9089 32.0733 43.8875 32.0412C43.7272 31.8593 43.567 31.6774 43.396 31.4954C43.3853 31.474 43.3639 31.4633 43.3532 31.4419C43.1822 31.26 43.0006 31.0674 42.8189 30.8855C42.6372 30.7035 42.4556 30.5216 42.2632 30.3504C42.2418 30.329 42.2311 30.3183 42.2098 30.2969C42.0281 30.1363 41.8571 29.9651 41.6754 29.8046C41.6434 29.7832 41.622 29.7511 41.59 29.7297C41.4083 29.5799 41.2373 29.4193 41.0556 29.2695C41.0236 29.2374 40.9915 29.216 40.9594 29.1839C40.7778 29.0341 40.5961 28.895 40.4144 28.7452C40.3824 28.7237 40.3503 28.6916 40.3183 28.6702C40.1259 28.5311 39.9442 28.3813 39.7519 28.2422C39.7198 28.2208 39.6984 28.1994 39.6664 28.178C39.4633 28.0389 39.271 27.889 39.0679 27.7499C39.0572 27.7392 39.0359 27.7285 39.0252 27.7178C38.8221 27.5787 38.6298 27.4503 38.4267 27.3219C38.4054 27.3112 38.3733 27.2897 38.3519 27.279C38.1489 27.1506 37.9459 27.0329 37.7428 26.9045C37.7214 26.8938 37.7001 26.8724 37.668 26.8617C41.3335 24.9033 45.4478 23.876 49.6155 23.876C49.6796 23.876 49.7437 23.876 49.8079 23.876C49.8292 28.1352 48.8033 32.3195 46.8157 36.0436Z" fill="#454F7C" fill-opacity="0.3"/>
</svg>
