<svg width="106" height="106" viewBox="0 0 106 106" fill="none" xmlns="http://www.w3.org/2000/svg">
<g id="Frame" clip-path="url(#clip0_0_86)">
<g id="Group">
<path id="Vector" d="M105.989 53C106.171 43.8484 103.932 34.8077 99.5181 26.8272L99.5204 26.8249L99.5181 26.8205C103.932 18.8378 106.171 9.79485 105.989 0.643231L105.978 0.0354886L105.37 0.0243984C96.2396 -0.157481 87.1649 2.08717 79.1992 6.48998C71.2269 2.08052 62.1389 -0.168571 53.0064 0.0110902C52.6693 0.00443607 52.3277 0 51.9883 0C43.1842 0 34.4887 2.24465 26.8114 6.48776C18.848 2.08717 9.76662 -0.157481 0.643072 0.0221804L0.0352787 0.0354886L0.0219694 0.643231C-0.159925 9.79485 2.07604 18.8334 6.48809 26.8116C2.07161 34.7943 -0.168798 43.8395 0.00866005 52.9956C-0.168798 62.1538 2.06939 71.199 6.48365 79.1817C2.06939 87.1666 -0.16658 96.2118 0.0130965 105.37L0.0241876 105.978L0.631981 105.989C0.973587 105.996 1.31741 106 1.66124 106H1.66345C10.4609 106 19.1497 103.76 26.8225 99.5211L26.8248 99.5233L26.8381 99.5167C34.5042 103.753 43.1886 105.991 51.9794 105.991C52.3232 105.991 52.6648 105.987 53.0087 105.982H53.0109C53.3503 105.989 53.6919 105.993 54.0313 105.993H54.0335C62.8265 105.993 71.5153 103.751 79.1815 99.5122L79.1859 99.5145L79.1903 99.5122C86.8587 103.751 95.5453 105.993 104.341 105.993C104.684 105.993 105.026 105.989 105.37 105.984L105.978 105.973L105.989 105.366C106.171 96.214 103.932 87.1689 99.5181 79.1884L99.5204 79.1839L99.5181 79.1817C103.932 71.1946 106.171 62.1538 105.989 53ZM80.5191 61.0914C80.7631 61.24 81.0026 61.3953 81.2444 61.5505C81.484 61.7014 81.7236 61.8522 81.9587 62.0075C82.2093 62.1738 82.4556 62.3446 82.704 62.5132C82.9258 62.664 83.1499 62.8148 83.3695 62.9701C83.6246 63.152 83.8752 63.3383 84.1281 63.5246C84.3344 63.6776 84.5429 63.8262 84.747 63.9815C85.0065 64.1789 85.2616 64.383 85.5167 64.5848C85.7075 64.7356 85.9005 64.8842 86.089 65.0373C86.3574 65.2547 86.6192 65.4809 86.8809 65.7049C87.0517 65.8513 87.227 65.991 87.3955 66.1397C87.6928 66.3992 87.9834 66.6653 88.274 66.9315C88.4026 67.049 88.5357 67.1644 88.6644 67.2842C89.0814 67.6745 89.4918 68.0693 89.8955 68.473C90.2992 68.8767 90.694 69.2848 91.0822 69.7018C91.2286 69.8571 91.3684 70.019 91.5104 70.1765C91.7499 70.4382 91.9917 70.6999 92.2246 70.9683C92.391 71.1591 92.5507 71.3543 92.7126 71.5472C92.9167 71.789 93.1252 72.0285 93.3249 72.2747C93.489 72.4766 93.6487 72.6851 93.8107 72.8914C94.0014 73.1331 94.1944 73.3727 94.3829 73.6189C94.5427 73.8296 94.6979 74.0447 94.8554 74.2599C95.0373 74.5061 95.2192 74.7501 95.3967 74.9985C95.552 75.2159 95.7006 75.4399 95.8514 75.6595C96.0222 75.9101 96.1952 76.1585 96.3616 76.4114C96.5102 76.6376 96.6544 76.8683 96.8008 77.099C96.9605 77.3518 97.1225 77.6025 97.2799 77.8575C97.4264 78.0949 97.5661 78.3366 97.7058 78.5762C97.8256 78.778 97.9432 78.9799 98.0608 79.1817C97.941 79.3902 97.819 79.5965 97.6992 79.8028C97.5617 80.0357 97.4264 80.2708 97.2844 80.5014C97.118 80.7743 96.945 81.0404 96.7742 81.311C96.6411 81.5217 96.508 81.7325 96.3705 81.9409C96.1819 82.2271 95.9867 82.511 95.7915 82.7927C95.6629 82.979 95.5386 83.1653 95.41 83.3494C95.1948 83.6533 94.973 83.9505 94.7512 84.2499C94.6336 84.4074 94.5205 84.5693 94.4007 84.7268C94.1567 85.0484 93.9038 85.3656 93.6509 85.6806C93.5489 85.8092 93.4491 85.9423 93.3448 86.0687C93.0653 86.4125 92.777 86.7519 92.4864 87.089C92.4043 87.1844 92.3244 87.2842 92.2424 87.3796C91.9185 87.7522 91.5858 88.116 91.2508 88.4797C91.1976 88.5374 91.1466 88.5973 91.0933 88.655C90.7007 89.0742 90.3036 89.4867 89.8977 89.8926C89.4962 90.2941 89.0881 90.6889 88.6732 91.0748C88.4669 91.2678 88.2562 91.4519 88.0477 91.6404C87.8348 91.8312 87.6262 92.0264 87.4111 92.2149C87.1782 92.419 86.9364 92.6164 86.699 92.816C86.5016 92.9823 86.3064 93.1509 86.1068 93.315C85.8628 93.5147 85.6121 93.7054 85.3659 93.9006C85.1662 94.0581 84.9688 94.2178 84.767 94.3708C84.5163 94.5616 84.2612 94.7457 84.0061 94.932C83.802 95.0828 83.598 95.2359 83.3917 95.3823C83.1343 95.5664 82.8704 95.7416 82.6086 95.919C82.4001 96.061 82.1916 96.2074 81.9809 96.3449C81.7147 96.5201 81.4441 96.6909 81.1734 96.8617C80.9627 96.9948 80.752 97.1323 80.539 97.2632C80.2617 97.4317 79.9822 97.5959 79.7028 97.76C79.532 97.8598 79.3634 97.9596 79.1926 98.0594C79.0107 97.9552 78.831 97.8487 78.6513 97.7422C78.3851 97.5848 78.1167 97.4295 77.8528 97.2676C77.6243 97.1279 77.398 96.9815 77.1718 96.8373C76.9189 96.6754 76.6616 96.5179 76.4109 96.3515C76.1758 96.1963 75.9429 96.0344 75.71 95.8747C75.4748 95.7127 75.2353 95.5553 75.0023 95.3889C74.7539 95.2137 74.5121 95.0318 74.2681 94.8521C74.0552 94.6947 73.84 94.5416 73.6293 94.3819C73.3653 94.1801 73.1058 93.9716 72.844 93.7653C72.6599 93.6189 72.4736 93.477 72.2895 93.3284C72.0011 93.0932 71.7171 92.8493 71.4332 92.6075C71.2846 92.4811 71.1315 92.3568 70.9851 92.2282C70.6524 91.9376 70.3285 91.6404 70.0025 91.3432C69.9071 91.2567 69.8095 91.1724 69.7141 91.0837C69.2949 90.6933 68.8845 90.2963 68.4785 89.8904C68.0726 89.4845 67.6733 89.0719 67.2807 88.6505C67.2319 88.5995 67.1853 88.544 67.1387 88.493C66.7994 88.1248 66.4622 87.7544 66.1339 87.3774C66.0474 87.2775 65.9631 87.1733 65.8766 87.0713C65.5926 86.7408 65.3087 86.4081 65.0336 86.0687C64.9227 85.9312 64.814 85.7915 64.7054 85.6517C64.4613 85.3456 64.2173 85.0395 63.98 84.7268C63.8513 84.556 63.7271 84.383 63.6007 84.21C63.3899 83.9261 63.177 83.64 62.9729 83.3516C62.831 83.152 62.6956 82.9502 62.5581 82.7483C62.374 82.4822 62.1899 82.216 62.0124 81.9454C61.8638 81.7191 61.7196 81.4885 61.5754 81.26C61.4157 81.0094 61.256 80.761 61.1007 80.5081C60.9477 80.2575 60.7991 80.0024 60.6504 79.7495C60.5373 79.5588 60.4242 79.368 60.3133 79.1751C62.5537 75.2536 65.2998 71.6537 68.483 68.4708C71.6661 65.2879 75.2641 62.542 79.1881 60.3018C79.3767 60.4105 79.5652 60.5214 79.7538 60.6323C80.0044 60.7853 80.264 60.9361 80.5191 61.0914ZM79.1903 58.849L79.1859 58.8467L78.8754 59.022C78.8731 59.0242 78.8709 59.0242 78.8687 59.0264L77.8927 59.5743L77.906 59.5809C74.135 61.8078 70.6657 64.4916 67.5802 67.5792C64.4946 70.6644 61.8083 74.1335 59.5813 77.9041L59.5746 77.8908L59.0267 78.8645C59.0245 78.8668 59.0245 78.869 59.0223 78.8734L58.8492 79.1839L58.8515 79.1861C55.9145 84.4984 53.9403 90.2808 53.0042 96.2517C52.0659 90.283 50.0961 84.505 47.1614 79.195L47.1681 79.1817L46.9928 78.8712C46.8398 78.5984 46.6845 78.3278 46.527 78.0594L46.4316 77.8908L46.4294 77.8952C44.2023 74.1268 41.516 70.6578 38.4327 67.5747C35.3472 64.4894 31.8801 61.8056 28.1113 59.5787L28.1291 59.5698L27.1464 59.0175C27.051 58.9643 26.9556 58.9133 26.8602 58.8601L26.8248 58.8401C21.5387 55.9189 15.7691 53.9515 9.81542 53.0067C15.8911 52.044 21.7739 50.0123 27.1464 46.9913L28.1291 46.439L28.1047 46.4257C31.8734 44.1988 35.3427 41.515 38.4283 38.4297C41.5138 35.3444 44.2001 31.8732 46.425 28.1047L46.4383 28.1291L46.9906 27.1466C50.0141 21.7678 52.0415 15.8967 53.0042 9.83034C53.9669 15.8967 55.9944 21.7678 59.0178 27.1466L59.5702 28.1291L59.5835 28.1047C61.8083 31.8732 64.4946 35.3422 67.5802 38.4275C70.6657 41.5128 74.135 44.1988 77.906 46.4235L77.8927 46.4302L78.8665 46.978C78.8687 46.9802 78.8731 46.9825 78.8754 46.9825L79.1859 47.1577L79.1903 47.1555C84.4941 50.0877 90.2881 52.064 96.2662 53.0022C90.2881 53.9427 84.4941 55.9167 79.1903 58.849ZM8.72849 25.503C8.89042 25.2368 9.05901 24.9773 9.22538 24.7156C9.36512 24.496 9.50265 24.2764 9.64462 24.059C9.81986 23.7929 10.004 23.5289 10.1836 23.2672C10.3256 23.0609 10.4654 22.8524 10.6095 22.6462C10.7981 22.38 10.9933 22.1205 11.1863 21.8565C11.3327 21.6591 11.4747 21.4595 11.6233 21.2643C11.8229 21.0004 12.0314 20.7431 12.2377 20.4836C12.3863 20.295 12.5305 20.1065 12.6836 19.9202C12.8988 19.6562 13.1184 19.4012 13.338 19.1417C13.4866 18.9664 13.633 18.7868 13.786 18.6116C14.0234 18.3387 14.2696 18.0726 14.5136 17.8064C14.6534 17.6534 14.7909 17.4959 14.9329 17.3428C15.2856 16.9658 15.6471 16.5931 16.0131 16.2249C16.0486 16.1895 16.0841 16.1495 16.1196 16.114C16.1551 16.0786 16.1928 16.0431 16.2283 16.0076C16.5965 15.6416 16.9692 15.2801 17.3463 14.9274C17.4949 14.7877 17.6502 14.6546 17.801 14.5171C18.0716 14.2709 18.3401 14.0224 18.6151 13.7829C18.7926 13.6276 18.9767 13.479 19.1564 13.326C19.4115 13.1108 19.6643 12.8912 19.9216 12.6805C20.1146 12.523 20.3121 12.3722 20.505 12.2192C20.7579 12.0195 21.0086 11.8177 21.2659 11.6225C21.4677 11.4695 21.6763 11.3209 21.8803 11.17C22.1354 10.9815 22.3883 10.793 22.6456 10.6111C22.8564 10.4625 23.0715 10.3183 23.2867 10.1719C23.544 9.99448 23.7991 9.81703 24.0609 9.64624C24.2782 9.50207 24.5001 9.36455 24.7219 9.22482C24.9836 9.05846 25.2454 8.88989 25.5093 8.72798C25.7334 8.59046 25.9597 8.45959 26.1859 8.32651C26.3989 8.20008 26.6118 8.07366 26.827 7.95166C27.0843 8.09805 27.3394 8.24888 27.5923 8.39971C27.7608 8.49952 27.9317 8.59933 28.1002 8.70136C28.464 8.92316 28.8234 9.15162 29.1805 9.3823C29.2981 9.45771 29.4179 9.53091 29.5332 9.60854C29.9391 9.87692 30.3406 10.1497 30.7399 10.4292C30.8065 10.4758 30.873 10.5202 30.9396 10.5667C31.3921 10.8861 31.8379 11.2122 32.2794 11.5471C32.2905 11.556 32.3038 11.5648 32.3149 11.5737C34.156 12.9689 35.8995 14.4882 37.5321 16.1207C39.1603 17.7487 40.6753 19.4877 42.0684 21.322C42.1127 21.3819 42.1571 21.4418 42.2015 21.5017C42.4987 21.8965 42.7915 22.2935 43.0755 22.6972C43.1509 22.8036 43.2219 22.9101 43.2951 23.0166C43.5457 23.3759 43.7942 23.7374 44.0337 24.1034C44.1313 24.2498 44.2223 24.4006 44.3177 24.5492C44.5284 24.8775 44.7391 25.2058 44.9432 25.5407C45.0586 25.727 45.1672 25.9178 45.2782 26.1063C45.4201 26.3481 45.5621 26.5876 45.7018 26.8316C43.4614 30.7531 40.7131 34.3507 37.5321 37.5336C34.3512 40.7165 30.751 43.4624 26.8292 45.7027C26.5652 45.5518 26.3035 45.3988 26.0439 45.2435C25.8798 45.1459 25.7134 45.0506 25.5515 44.9507C25.1988 44.7356 24.8528 44.5138 24.5045 44.2898C24.3736 44.2055 24.2405 44.1234 24.1097 44.0369C23.7259 43.7841 23.3488 43.5268 22.9739 43.265C22.883 43.2029 22.792 43.1408 22.7033 43.0787C22.2796 42.7793 21.8626 42.4732 21.4478 42.1605C21.4079 42.1294 21.3657 42.1006 21.328 42.0717C19.4913 40.6788 17.75 39.1617 16.1196 37.5314C14.4892 35.9012 12.972 34.16 11.5789 32.3235C11.5501 32.2857 11.5235 32.248 11.4968 32.2126C11.1818 31.7956 10.8735 31.3741 10.5718 30.9461C10.5142 30.864 10.4587 30.7797 10.401 30.6976C10.1326 30.3139 9.86866 29.928 9.61135 29.5354C9.53371 29.4178 9.45829 29.2958 9.38287 29.1761C9.15217 28.8167 8.92148 28.4574 8.69966 28.0914C8.60871 27.9428 8.5222 27.7942 8.43569 27.6456C8.27376 27.3728 8.11405 27.1 7.95655 26.8249C8.07634 26.6164 8.19834 26.4102 8.32034 26.2017C8.45122 25.9666 8.58653 25.7337 8.72849 25.503ZM80.5035 8.72576C80.7764 8.89211 81.0426 9.06512 81.311 9.23591C81.5239 9.37121 81.7369 9.50429 81.9454 9.64181C82.2204 9.82369 82.4933 10.0122 82.7639 10.1985C82.9613 10.3338 83.161 10.4669 83.3584 10.6067C83.6357 10.8018 83.9085 11.0059 84.1813 11.2077C84.3677 11.3453 84.5562 11.4783 84.7381 11.6181C85.0154 11.8288 85.286 12.0462 85.5566 12.2613C85.7319 12.401 85.9093 12.5363 86.0824 12.6783C86.3596 12.9045 86.6303 13.1374 86.9031 13.3681C87.065 13.5056 87.2314 13.6409 87.3911 13.7807C87.6817 14.0335 87.9656 14.2953 88.2496 14.5548C88.3871 14.679 88.5268 14.801 88.6622 14.9274C89.0592 15.2978 89.4474 15.6749 89.8334 16.0586C89.8533 16.0786 89.8733 16.0963 89.8933 16.1163C89.9132 16.1362 89.9332 16.1584 89.9532 16.1784C90.3347 16.5621 90.7118 16.9502 91.08 17.3451C91.2087 17.4826 91.3307 17.6245 91.4571 17.762C91.7166 18.046 91.974 18.3276 92.2268 18.616C92.3666 18.7757 92.4997 18.9398 92.6372 19.1017C92.8701 19.3746 93.103 19.6452 93.3293 19.9246C93.4713 20.0976 93.6066 20.2751 93.7441 20.4503C93.9593 20.7231 94.1767 20.9937 94.3874 21.2688C94.5294 21.4551 94.6647 21.6436 94.8022 21.8321C95.0018 22.1027 95.2037 22.3733 95.3989 22.6484C95.5409 22.848 95.6762 23.0521 95.8159 23.2539C96 23.5223 96.1842 23.7885 96.3638 24.059C96.508 24.2764 96.6455 24.4982 96.7853 24.7178C96.9517 24.9773 97.118 25.2368 97.2799 25.5008C97.4264 25.7403 97.5661 25.9821 97.7103 26.2239C97.8279 26.4235 97.9454 26.6231 98.0608 26.8227C97.9365 27.0401 97.8101 27.2552 97.6814 27.4704C97.5484 27.6944 97.4175 27.9207 97.2822 28.1425C97.1225 28.4042 96.9561 28.6615 96.7897 28.921C96.6478 29.145 96.5058 29.3712 96.3594 29.5931C96.193 29.8459 96.02 30.0943 95.8492 30.345C95.6984 30.5668 95.5475 30.7886 95.3945 31.0082C95.2192 31.2544 95.0373 31.4961 94.8577 31.7401C94.6979 31.9553 94.5427 32.1726 94.3807 32.3856C94.1944 32.6295 94.0014 32.8691 93.8129 33.1109C93.6509 33.3171 93.4912 33.5256 93.3249 33.7297C93.123 33.9781 92.9145 34.2177 92.7082 34.4616C92.5463 34.6524 92.3888 34.8454 92.2246 35.0339C91.9917 35.3001 91.7521 35.5596 91.5148 35.8213C91.3684 35.981 91.2286 36.1429 91.08 36.3026C90.7074 36.7019 90.328 37.0922 89.9421 37.4804C89.9243 37.4981 89.9088 37.5137 89.8933 37.5314C89.8777 37.5469 89.8622 37.5625 89.8467 37.578C89.4585 37.9639 89.0659 38.3454 88.6644 38.7203C88.518 38.8578 88.3649 38.9887 88.2185 39.124C87.9457 39.3724 87.675 39.623 87.3978 39.8648C87.2159 40.0223 87.0295 40.1753 86.8454 40.3306C86.5948 40.5435 86.3463 40.7587 86.0912 40.9649C85.8894 41.1291 85.6853 41.2865 85.4812 41.4462C85.2372 41.6392 84.9954 41.8322 84.7492 42.0207C84.534 42.1848 84.3144 42.3401 84.0971 42.502C83.8553 42.6795 83.6157 42.8591 83.3717 43.0321C83.1454 43.1918 82.917 43.3449 82.6885 43.5024C82.4467 43.6687 82.2049 43.8373 81.9587 43.9992C81.7258 44.1522 81.4884 44.3009 81.2511 44.4517C81.0049 44.6069 80.7608 44.7666 80.5124 44.9175C80.2728 45.0639 80.0311 45.2036 79.7893 45.3478C79.5874 45.4675 79.3856 45.5873 79.1793 45.7049C75.2574 43.4624 71.6573 40.7165 68.4763 37.5336C65.2954 34.353 62.5492 30.7531 60.3066 26.8316C60.4441 26.592 60.5839 26.3547 60.7236 26.1174C60.839 25.9244 60.9499 25.7292 61.0675 25.5385C61.2715 25.2036 61.4845 24.8731 61.6952 24.5426C61.7884 24.3962 61.8793 24.2498 61.9747 24.1056C62.2232 23.7286 62.4783 23.3582 62.7356 22.9877C62.8021 22.8924 62.8642 22.797 62.933 22.7016C63.2324 22.278 63.5408 21.8588 63.8535 21.444C63.8824 21.4063 63.909 21.3664 63.9378 21.3286C65.3309 19.4921 66.8482 17.751 68.4785 16.1207C70.1112 14.4904 71.8525 12.9733 73.6914 11.5782C73.7224 11.5538 73.7535 11.5316 73.7845 11.5094C74.206 11.19 74.6341 10.8773 75.0667 10.5712C75.151 10.5113 75.2353 10.4558 75.3195 10.3982C75.7011 10.132 76.0848 9.86805 76.473 9.61297C76.6017 9.52869 76.7326 9.44884 76.8612 9.36455C77.2095 9.14053 77.5577 8.91873 77.9104 8.70358C78.079 8.60155 78.2498 8.50174 78.4184 8.40193C78.6735 8.2511 78.9286 8.10027 79.1859 7.95388C79.3966 8.07587 79.6074 8.20008 79.8181 8.32208C80.0466 8.45294 80.2773 8.58602 80.5035 8.72576ZM46.4139 25.5207C46.3917 25.4808 46.3651 25.4431 46.3429 25.4054C46.0967 24.9906 45.846 24.5803 45.5887 24.1722C45.5554 24.1189 45.5199 24.0657 45.4867 24.0125C45.2382 23.6243 44.9853 23.2384 44.728 22.8569C44.6948 22.8081 44.6615 22.7571 44.6282 22.7083C44.3709 22.329 44.1069 21.9541 43.8385 21.5837C43.7809 21.5017 43.7232 21.4218 43.6633 21.3397C43.4038 20.9848 43.1398 20.6322 42.8714 20.284C42.796 20.1864 42.7205 20.0888 42.6451 19.9912C42.3834 19.654 42.115 19.3213 41.8443 18.9908C41.7601 18.8888 41.6758 18.7868 41.5893 18.6847C41.3186 18.3609 41.0436 18.0393 40.7663 17.7199C40.6798 17.6201 40.591 17.5203 40.5023 17.4227C40.2184 17.1033 39.9322 16.7883 39.6417 16.4756C39.5596 16.3869 39.4753 16.3004 39.3932 16.2139C39.1226 15.9277 38.8497 15.646 38.5725 15.3666C38.5237 15.3178 38.4771 15.2668 38.4283 15.218C38.3795 15.1692 38.3285 15.1226 38.2797 15.0738C38.0024 14.7987 37.7229 14.5281 37.439 14.2598C37.3502 14.1755 37.2593 14.089 37.1706 14.0047C36.8622 13.7163 36.5472 13.4324 36.23 13.1507C36.128 13.0598 36.0259 12.9689 35.9239 12.8801C35.6089 12.6029 35.2895 12.3323 34.9656 12.0639C34.8614 11.9774 34.7571 11.8909 34.6507 11.8044C34.3224 11.536 33.9918 11.2698 33.6569 11.0081C33.5593 10.9305 33.4595 10.8551 33.3596 10.7797C33.0114 10.5135 32.6609 10.2495 32.3082 9.99004C32.2261 9.93015 32.1441 9.87248 32.0642 9.81481C31.6938 9.54643 31.3189 9.2847 30.9418 9.02519C30.893 8.99192 30.842 8.95865 30.7932 8.92538C30.4116 8.66809 30.0257 8.41523 29.6352 8.16681C29.582 8.13354 29.531 8.09805 29.4778 8.06478C29.0696 7.80749 28.6592 7.55685 28.2444 7.31065C28.2045 7.28847 28.1668 7.26185 28.1291 7.23967C35.5512 3.2827 43.9162 1.22436 52.3609 1.29312C52.4253 9.74827 50.3756 18.0881 46.4139 25.5207ZM77.7529 7.31731C77.347 7.55907 76.9433 7.80527 76.5462 8.05591C76.4797 8.09805 76.4154 8.1402 76.351 8.18234C75.9806 8.41967 75.6146 8.65922 75.2508 8.90542C75.1798 8.95422 75.1088 9.0008 75.0378 9.04959C74.6763 9.29579 74.3191 9.54865 73.9642 9.80373C73.8755 9.86805 73.7868 9.93015 73.698 9.99448C73.3475 10.2496 73.0015 10.5113 72.6577 10.7752C72.5556 10.8529 72.4558 10.9305 72.3538 11.0103C72.0188 11.2721 71.6883 11.5382 71.36 11.8066C71.258 11.8909 71.1537 11.9752 71.0517 12.0617C70.7256 12.3323 70.404 12.6073 70.0845 12.8868C69.9869 12.9711 69.8916 13.0576 69.794 13.1441C69.4723 13.4302 69.1529 13.7186 68.8379 14.0136C68.7536 14.0934 68.6715 14.1733 68.5872 14.2509C68.2967 14.5259 68.0083 14.8032 67.7243 15.0849C67.6778 15.1315 67.6312 15.1736 67.5846 15.2202C67.538 15.2668 67.4959 15.3133 67.4493 15.3599C67.1654 15.646 66.8859 15.9366 66.6086 16.2272C66.5309 16.307 66.4555 16.3891 66.3779 16.4689C66.0806 16.7883 65.7856 17.1122 65.4973 17.4382C65.4174 17.5291 65.3353 17.6179 65.2555 17.7088C64.9693 18.0349 64.6898 18.3653 64.4103 18.6981C64.3327 18.7912 64.2551 18.8844 64.1774 18.9775C63.9001 19.3147 63.6273 19.6562 63.3567 20.0023C63.2879 20.091 63.2214 20.1775 63.1526 20.2662C62.8775 20.6233 62.6069 20.9848 62.3407 21.3486C62.2897 21.4174 62.2409 21.4883 62.1899 21.5593C61.9104 21.9475 61.6331 22.3379 61.3647 22.7349C61.3447 22.7637 61.3248 22.7926 61.307 22.8236C61.032 23.2273 60.7658 23.6376 60.5018 24.0502C60.4796 24.0857 60.4552 24.1212 60.4331 24.1566C60.1624 24.5825 59.9007 25.015 59.6411 25.4475C59.6256 25.4719 59.6101 25.4963 59.5968 25.5207C55.635 18.0859 53.5854 9.74827 53.6497 1.2909C62.1012 1.2177 70.4594 3.28048 77.8816 7.23746C77.8394 7.26407 77.7973 7.29069 77.7529 7.31731ZM25.516 59.5898C21.7561 61.8145 18.2957 64.4939 15.2168 67.5725C12.1379 70.6511 9.45829 74.1113 7.23341 77.8708C3.27388 70.4404 1.22646 62.1028 1.29079 53.6477C9.74888 53.5789 18.096 55.6372 25.516 59.5898ZM37.5277 89.8815C34.3445 93.0622 30.7466 95.8081 26.8248 98.0483C22.9029 95.8081 19.305 93.0622 16.1218 89.8815C12.9409 86.7009 10.1947 83.101 7.95433 79.1795C10.1947 75.258 12.9409 71.6603 16.1218 68.4775C19.3028 65.2968 22.9029 62.5509 26.8248 60.3106C30.7466 62.5509 34.3467 65.2968 37.5277 68.4775C40.7086 71.6603 43.457 75.258 45.6974 79.1795C43.457 83.1032 40.7086 86.7031 37.5277 89.8815ZM7.31549 28.2534C7.55727 28.6593 7.8035 29.0629 8.05637 29.4644C8.09852 29.5309 8.14067 29.5953 8.18281 29.6618C8.41794 30.03 8.65751 30.3938 8.90152 30.7553C8.95254 30.8307 9.00355 30.9061 9.05457 30.9838C9.29636 31.3386 9.5448 31.6913 9.79768 32.0395C9.86422 32.1327 9.93077 32.2259 9.99954 32.319C10.2524 32.665 10.5097 33.0066 10.7693 33.346C10.8513 33.4524 10.9334 33.5589 11.0155 33.6654C11.2728 33.9959 11.5345 34.3219 11.8007 34.6457C11.8895 34.7544 11.9782 34.8609 12.0669 34.9696C12.3353 35.2912 12.6059 35.6084 12.881 35.9233C12.9697 36.0254 13.0607 36.1252 13.1494 36.2272C13.4311 36.5444 13.7173 36.8593 14.0079 37.1699C14.0899 37.2586 14.1742 37.3451 14.2563 37.4316C14.5269 37.7177 14.7998 37.9994 15.077 38.2789C15.1258 38.3277 15.1702 38.3765 15.219 38.4253C15.2678 38.4741 15.3166 38.5207 15.3654 38.5672C15.6449 38.8445 15.9266 39.1151 16.2106 39.3857C16.2993 39.47 16.388 39.5543 16.4767 39.6385C16.7873 39.9291 17.1023 40.213 17.4173 40.4947C17.5193 40.5856 17.6191 40.6744 17.7212 40.7653C18.0362 41.0426 18.3556 41.3132 18.6772 41.5815C18.7815 41.6703 18.888 41.7568 18.9944 41.8433C19.3205 42.1117 19.651 42.3756 19.986 42.6373C20.0858 42.715 20.1878 42.7926 20.2877 42.8702C20.6337 43.1364 20.982 43.3981 21.3347 43.6554C21.4189 43.7175 21.5032 43.7774 21.5875 43.8373C21.9535 44.1012 22.3218 44.3607 22.6944 44.6158C22.7499 44.6535 22.8076 44.6912 22.863 44.7289C23.2401 44.984 23.6194 45.2324 24.0032 45.4764C24.0586 45.5119 24.1163 45.5496 24.1718 45.5851C24.5755 45.8402 24.9858 46.0908 25.3962 46.3348C25.4361 46.3592 25.4761 46.3858 25.5182 46.408C18.2114 50.3006 9.99288 52.3545 1.67898 52.3545C1.54811 52.3545 1.41945 52.3545 1.28636 52.3545C1.22203 43.8972 3.26945 35.5574 7.23341 28.1247C7.26225 28.1691 7.29109 28.2112 7.31549 28.2534ZM15.2168 90.7887C18.2957 93.8673 21.7583 96.5489 25.5182 98.7714C18.2114 102.664 9.9951 104.716 1.67898 104.716C1.54811 104.716 1.41723 104.716 1.28636 104.716C1.22203 96.2584 3.26945 87.9208 7.23119 80.4859C9.45607 84.2455 12.1379 87.7101 15.2168 90.7887ZM104.341 52.3679C96.0156 52.3679 87.7904 50.3117 80.4769 46.4146C80.5168 46.3902 80.5568 46.3636 80.5989 46.3414C81.0159 46.093 81.4307 45.8402 81.8411 45.5807C81.8788 45.5563 81.9165 45.5319 81.9542 45.5075C82.3735 45.2391 82.7905 44.9685 83.2031 44.689C83.2209 44.6779 83.2386 44.6646 83.2563 44.6535C83.6712 44.3718 84.0815 44.0835 84.4875 43.7885C84.534 43.7552 84.5806 43.722 84.6272 43.6887C85.0176 43.4048 85.4058 43.1142 85.7873 42.8192C85.845 42.7748 85.9027 42.7305 85.9604 42.6861C86.3375 42.3933 86.7101 42.0939 87.0783 41.7923C87.136 41.7457 87.1937 41.6969 87.2491 41.6503C87.6196 41.3442 87.9856 41.0315 88.3472 40.7143C88.396 40.6721 88.4426 40.63 88.4913 40.5879C88.8618 40.2596 89.2278 39.9291 89.5872 39.5897C89.616 39.5631 89.6426 39.5365 89.6714 39.5099C90.0485 39.155 90.4212 38.7957 90.7894 38.4275C91.1577 38.0571 91.5214 37.6822 91.8786 37.3029C91.9008 37.2785 91.9252 37.2564 91.9473 37.232C92.2889 36.8682 92.6239 36.4978 92.9544 36.1252C92.9943 36.0808 93.0321 36.0365 93.072 35.9921C93.3914 35.6283 93.7064 35.2601 94.0147 34.8875C94.0613 34.8321 94.1057 34.7766 94.1523 34.7234C94.4562 34.353 94.7556 33.9803 95.0484 33.6033C95.0928 33.5456 95.1371 33.4879 95.1837 33.428C95.4765 33.0465 95.7671 32.6628 96.0511 32.2724C96.0888 32.2214 96.1243 32.1704 96.162 32.1194C96.4526 31.7179 96.7365 31.312 97.016 30.9039C97.0337 30.8773 97.0515 30.8507 97.0692 30.8241C97.3398 30.4248 97.6038 30.0211 97.8633 29.613C97.8922 29.5664 97.9232 29.5199 97.9543 29.4733C98.2094 29.0696 98.4578 28.6637 98.7018 28.2534C98.7284 28.2068 98.7573 28.1624 98.7861 28.1181C102.755 35.5574 104.802 43.906 104.738 52.3701C104.602 52.3679 104.471 52.3679 104.341 52.3679ZM104.733 1.27981C104.798 9.74384 102.748 18.0925 98.7817 25.5318C98.7551 25.4852 98.724 25.4409 98.6974 25.3943C98.4534 24.9862 98.2072 24.5803 97.9521 24.1766C97.921 24.1278 97.89 24.0812 97.8589 24.0324C97.6016 23.6287 97.3398 23.2295 97.0714 22.8325C97.0515 22.8036 97.0315 22.7726 97.0115 22.7438C96.7365 22.3379 96.4526 21.9364 96.1664 21.5394C96.1265 21.4839 96.0865 21.4285 96.0466 21.373C95.7671 20.9893 95.481 20.61 95.1926 20.2329C95.1438 20.1686 95.095 20.1043 95.044 20.04C94.7556 19.6696 94.4606 19.3014 94.1633 18.9376C94.1123 18.8755 94.0591 18.8112 94.0081 18.7491C93.7042 18.3831 93.3981 18.0238 93.0831 17.6667C93.0365 17.6134 92.9899 17.5624 92.9433 17.5092C92.6195 17.1432 92.2912 16.7817 91.9584 16.4246C91.9274 16.3913 91.8963 16.3602 91.8653 16.327C91.5126 15.9521 91.1554 15.5839 90.7916 15.2202C90.4301 14.8586 90.0619 14.5037 89.6914 14.1533C89.6559 14.12 89.6204 14.0845 89.5827 14.0513C89.23 13.7208 88.8707 13.3947 88.5091 13.0753C88.4536 13.0265 88.3982 12.9755 88.3427 12.9267C87.9878 12.6162 87.6285 12.3101 87.2647 12.0085C87.2003 11.9552 87.1382 11.902 87.0739 11.851C86.7101 11.5515 86.3419 11.2565 85.9692 10.9682C85.9071 10.9216 85.8472 10.8728 85.7851 10.8262C85.4036 10.5335 85.0198 10.2429 84.6316 9.96121C84.5851 9.92793 84.5385 9.89466 84.4919 9.86139C84.0837 9.56639 83.6712 9.27583 83.2563 8.99414C83.2453 8.98527 83.2319 8.97861 83.2209 8.96974C82.7972 8.68362 82.3691 8.40193 81.9387 8.12689C81.9121 8.10914 81.8833 8.0914 81.8566 8.07366C81.4352 7.80749 81.0093 7.54798 80.5789 7.29291C80.5457 7.27294 80.5146 7.25298 80.4814 7.23302C87.9057 3.27161 96.2795 1.20883 104.733 1.27981ZM1.67233 1.27759C9.9951 1.27759 18.2203 3.33371 25.5338 7.2308C25.496 7.25298 25.4583 7.27738 25.4206 7.29956C24.9992 7.5502 24.5821 7.80306 24.1695 8.06478C24.1318 8.08918 24.0941 8.11358 24.0564 8.13798C23.6372 8.40414 23.2224 8.67696 22.812 8.95422C22.792 8.96752 22.7721 8.98083 22.7521 8.99414C22.3395 9.27583 21.9314 9.56196 21.5276 9.85474C21.4788 9.89023 21.43 9.92572 21.3812 9.96121C20.9908 10.2451 20.6071 10.5335 20.2255 10.8285C20.1657 10.875 20.108 10.9194 20.0481 10.966C19.6732 11.2588 19.3005 11.556 18.9345 11.8576C18.8746 11.9064 18.817 11.9552 18.7571 12.004C18.3889 12.3101 18.0251 12.6206 17.6657 12.9356C17.6147 12.98 17.5659 13.0243 17.5149 13.0687C17.1467 13.3947 16.7829 13.723 16.4257 14.0579C16.3947 14.089 16.3614 14.1178 16.3303 14.1489C15.9555 14.5015 15.585 14.8586 15.2212 15.2224C14.8597 15.5839 14.5047 15.9499 14.1565 16.3225C14.121 16.358 14.0877 16.3957 14.0522 16.4312C13.7217 16.7839 13.3979 17.141 13.0784 17.5025C13.0274 17.5602 12.9764 17.6179 12.9254 17.6755C12.617 18.0282 12.3131 18.3853 12.0115 18.7446C11.956 18.8112 11.9006 18.8799 11.8429 18.9465C11.5479 19.3058 11.2573 19.6673 10.9711 20.0355C10.9179 20.1043 10.8646 20.173 10.8114 20.2418C10.5253 20.6144 10.2413 20.9893 9.96404 21.3708C9.9219 21.4307 9.87975 21.4883 9.83761 21.5482C9.55145 21.943 9.27196 22.3423 8.9969 22.746C8.97694 22.777 8.95475 22.8081 8.93479 22.8391C8.66638 23.2339 8.40463 23.6332 8.14954 24.0369C8.11848 24.0834 8.08743 24.1322 8.05859 24.1788C7.8035 24.5825 7.55505 24.9906 7.30883 25.401C7.28221 25.4453 7.25338 25.4897 7.22676 25.534C3.26501 18.0925 1.21316 9.74384 1.2797 1.27981C1.41058 1.27759 1.54145 1.27759 1.67233 1.27759ZM28.1246 98.7758C31.889 96.5512 35.3516 93.8696 38.4349 90.7865C41.516 87.7056 44.2001 84.2411 46.425 80.477C50.3889 87.9163 52.4386 96.2606 52.372 104.722C43.9273 104.785 35.5512 102.733 28.1246 98.7758ZM54.0313 104.725C53.9004 104.725 53.7695 104.725 53.6386 104.725C53.5743 96.2606 55.6239 87.9119 59.5901 80.4704C59.6079 80.4992 59.6256 80.5258 59.6411 80.5547C59.8985 80.9894 60.1624 81.4197 60.4308 81.8456C60.4486 81.8722 60.4641 81.8988 60.4818 81.9232C60.7569 82.3557 61.0364 82.7816 61.3226 83.2052C61.3314 83.2185 61.3403 83.2318 61.3492 83.2452C61.6309 83.6599 61.9193 84.068 62.2121 84.474C62.2476 84.5227 62.283 84.5738 62.3185 84.6226C62.6003 85.0085 62.8886 85.3922 63.1792 85.7693C63.228 85.8336 63.2768 85.8957 63.3256 85.96C63.614 86.3304 63.9068 86.6964 64.204 87.058C64.2573 87.1245 64.3127 87.1888 64.3682 87.2554C64.6676 87.6169 64.9715 87.9718 65.2821 88.3245C65.3353 88.3843 65.3886 88.4442 65.4396 88.5019C65.7568 88.859 66.0762 89.2139 66.4045 89.5621C66.4466 89.6065 66.4888 89.6508 66.5309 89.6952C66.8659 90.0501 67.2031 90.4005 67.5491 90.7443C67.5602 90.7554 67.5713 90.7665 67.5824 90.7776C67.5935 90.7887 67.6046 90.7998 67.6157 90.8109C67.9617 91.1569 68.3144 91.4963 68.6693 91.8312C68.7115 91.8711 68.7536 91.911 68.7958 91.951C69.1485 92.2814 69.5078 92.6075 69.8694 92.9269C69.9226 92.9735 69.9758 93.0201 70.0291 93.0688C70.3884 93.386 70.7544 93.6965 71.1227 94.0026C71.1781 94.047 71.2314 94.0936 71.2868 94.1379C71.6595 94.4462 72.0388 94.7479 72.4203 95.0451C72.4691 95.0828 72.5179 95.1205 72.5645 95.156C72.9571 95.4599 73.352 95.7571 73.7535 96.0477C73.7868 96.0721 73.82 96.0965 73.8555 96.1209C74.2748 96.4225 74.6962 96.7219 75.1243 97.0103C75.1288 97.0125 75.131 97.0147 75.1354 97.0169C75.5613 97.3053 75.9894 97.587 76.4242 97.862C76.4575 97.8842 76.4908 97.9064 76.5263 97.9263C76.93 98.1814 77.3381 98.4321 77.7507 98.676C77.7995 98.7049 77.8461 98.7359 77.8927 98.7625C70.5814 102.671 62.3563 104.725 54.0313 104.725ZM80.4769 98.7736C80.5168 98.7492 80.5546 98.7248 80.5945 98.7027C81.0182 98.4498 81.4396 98.1947 81.8566 97.9308C81.8788 97.9175 81.8988 97.9042 81.921 97.8886C82.8105 97.323 83.6822 96.733 84.534 96.1164C84.5584 96.0987 84.5851 96.0809 84.6095 96.0632C85.0176 95.766 85.4213 95.4621 85.8206 95.1538C85.8605 95.1227 85.9027 95.0917 85.9426 95.0584C86.333 94.7568 86.7168 94.4485 87.0983 94.1335C87.1449 94.0958 87.1915 94.0559 87.2381 94.0182C87.6152 93.7054 87.9878 93.3882 88.356 93.0644C88.4004 93.0245 88.4448 92.9846 88.4891 92.9468C88.8596 92.6186 89.2256 92.2881 89.5872 91.9487C89.6204 91.9177 89.6537 91.8844 89.687 91.8534C90.0552 91.5051 90.4212 91.1547 90.7806 90.7954C90.785 90.7909 90.7894 90.7865 90.7939 90.7821C90.7983 90.7776 90.8027 90.7732 90.8072 90.7687C91.1599 90.4161 91.5081 90.0545 91.8497 89.693C91.8897 89.6508 91.9274 89.6109 91.9673 89.571C92.2934 89.2228 92.615 88.8679 92.9322 88.5086C92.9855 88.4487 93.0409 88.3888 93.0942 88.3267C93.4003 87.9762 93.702 87.6236 93.9992 87.2642C94.0569 87.1933 94.1168 87.1245 94.1744 87.0535C94.4672 86.6964 94.7556 86.3371 95.0396 85.9733C95.095 85.9024 95.1505 85.8292 95.2059 85.7582C95.4898 85.39 95.7716 85.0174 96.0444 84.6403C96.091 84.5782 96.1353 84.5139 96.1797 84.4518C96.4614 84.0592 96.7409 83.6666 97.0115 83.2651C97.0359 83.2296 97.0603 83.1919 97.0825 83.1564C97.3443 82.7683 97.6016 82.3757 97.8545 81.9787C97.8877 81.9254 97.921 81.8744 97.9543 81.8212C98.2072 81.4197 98.4556 81.016 98.6974 80.6079C98.724 80.5613 98.7551 80.517 98.7817 80.4704C102.75 87.9119 104.798 96.2584 104.733 104.725C96.2707 104.785 87.9057 102.733 80.4769 98.7736ZM98.7817 77.8886C98.7551 77.842 98.724 77.7977 98.6974 77.7511C98.4534 77.343 98.2072 76.9348 97.9521 76.5334C97.921 76.4846 97.89 76.4358 97.8567 76.387C97.6016 75.9855 97.3398 75.5863 97.0737 75.1937C97.0515 75.1626 97.0315 75.1316 97.0115 75.1005C96.7365 74.6968 96.4548 74.2976 96.1686 73.9006C96.1265 73.8429 96.0865 73.7852 96.0444 73.7276C95.7671 73.3461 95.4832 72.969 95.1948 72.5941C95.1438 72.5276 95.0928 72.4611 95.0418 72.3945C94.7556 72.0263 94.4628 71.6603 94.1656 71.2988C94.1123 71.2345 94.0591 71.1679 94.0036 71.1036C93.702 70.7399 93.3958 70.3805 93.0853 70.0279C93.0365 69.9724 92.9877 69.9192 92.9411 69.8637C92.6195 69.5 92.2912 69.1384 91.9607 68.7858C91.9296 68.7525 91.8963 68.7192 91.8653 68.6837C91.5126 68.3111 91.1577 67.9407 90.7939 67.5792C90.4323 67.2176 90.0641 66.8627 89.6936 66.5123C89.6581 66.479 89.6226 66.4435 89.5849 66.4103C89.2322 66.0798 88.8751 65.7559 88.5135 65.4365C88.4559 65.3855 88.3982 65.3345 88.3405 65.2835C87.9878 64.9752 87.6307 64.6691 87.2713 64.3697C87.2048 64.3142 87.136 64.2588 87.0695 64.2033C86.7101 63.9083 86.3463 63.6155 85.9781 63.3294C85.9116 63.2762 85.8428 63.2252 85.7762 63.1741C85.4014 62.8858 85.0243 62.6019 84.6427 62.3246C84.5851 62.2825 84.5296 62.2426 84.4719 62.2026C84.0749 61.9165 83.6756 61.6348 83.2697 61.3598C83.2386 61.3398 83.2098 61.3199 83.1787 61.2999C82.7839 61.0315 82.3846 60.772 81.9809 60.5147C81.9321 60.4837 81.8833 60.4504 81.8345 60.4193C81.4352 60.1665 81.0293 59.9203 80.6233 59.6763C80.5745 59.6475 80.5279 59.6164 80.4814 59.5898C87.7971 55.6927 96.02 53.6388 104.345 53.6388C104.476 53.6388 104.607 53.6388 104.738 53.641C104.798 62.1006 102.748 70.4471 98.7817 77.8886Z" fill="white"/>
<path id="Vector_2" d="M53.3704 83.1165C41.9732 83.1165 30.4007 82.5154 18.9791 81.3266L17.189 81.1402V25.3255L18.9791 25.1392C30.4007 23.9526 41.9732 23.3493 53.3704 23.3493C64.7699 23.3493 76.3401 23.9504 87.7618 25.1392L89.5519 25.3255V81.1425L87.7618 81.3288C76.3401 82.5154 64.7677 83.1165 53.3704 83.1165Z" fill="white"/>
<g id="Group_2">
<path id="Vector_3" d="M87.8483 26.1972C76.3978 25.0062 64.7943 24.4006 53.3594 24.4006C41.9244 24.4006 30.3231 25.0062 18.8726 26.1972L18.358 26.2483V79.9115L18.8704 79.9625C30.3231 81.1536 41.9266 81.7569 53.3594 81.7569C64.7921 81.7569 76.3956 81.1536 87.8461 79.9625L88.3607 79.9115V26.2505L87.8483 26.1972ZM87.2183 78.8801C75.9697 80.0334 64.5813 80.6168 53.3616 80.6168C42.1418 80.6168 30.7534 80.0334 19.5048 78.8801V27.2841C30.7534 26.1307 42.144 25.5474 53.3616 25.5474C64.5791 25.5474 75.9697 26.1307 87.2183 27.2841V78.8801Z" fill="#001F60"/>
<path id="Vector_4" d="M78.4896 67.3463H77.1365V67.7522H78.4896V67.3463Z" fill="#001F60"/>
<g id="Group_3">
<path id="Vector_5" d="M44.4044 43.7685C44.1449 43.4403 43.8188 43.163 43.435 42.9456C43.0557 42.7305 42.6365 42.5464 42.1906 42.4C41.7558 42.258 41.3455 42.1028 40.9728 41.9431C40.6068 41.7856 40.2985 41.6037 40.0589 41.4019C39.8304 41.2111 39.7195 40.9649 39.7195 40.6455C39.7195 40.4703 39.7594 40.3017 39.8371 40.1465C39.9125 39.9934 40.03 39.8581 40.1831 39.7406C40.3384 39.6252 40.5336 39.5276 40.7643 39.4544C40.995 39.3813 41.2656 39.3435 41.5695 39.3435C42.073 39.3435 42.5056 39.45 42.8561 39.6607C43.1977 39.867 43.3951 40.1864 43.4572 40.6344C43.4639 40.6855 43.5082 40.7232 43.5592 40.7232H44.3822C44.411 40.7232 44.4399 40.7099 44.4598 40.6877C44.4798 40.6655 44.4865 40.6344 44.482 40.6056C44.431 40.2929 44.3157 40.009 44.1382 39.7583C43.9607 39.5099 43.7345 39.297 43.4683 39.1262C43.1999 38.9554 42.896 38.8245 42.561 38.7402C41.8756 38.5628 41.0948 38.565 40.4227 38.758C40.0788 38.8578 39.7705 39.0042 39.5066 39.1972C39.2404 39.3923 39.0274 39.6385 38.8699 39.9335C38.7124 40.2308 38.6348 40.5701 38.6348 40.9472C38.6348 41.4462 38.7657 41.8544 39.0208 42.1605C39.2692 42.4599 39.5886 42.7127 39.9635 42.9102C40.3362 43.1053 40.7421 43.2761 41.1724 43.4136C41.5961 43.5489 41.9932 43.7042 42.3525 43.875C42.7074 44.0413 43.0047 44.2476 43.2376 44.4872C43.4616 44.7201 43.5726 45.0239 43.5726 45.4188C43.5726 45.9089 43.3995 46.2572 43.0446 46.4812C42.6786 46.7119 42.1839 46.8272 41.5739 46.8272H41.5673C41.0748 46.8272 40.6778 46.7629 40.385 46.6365C40.0922 46.51 39.8703 46.357 39.7195 46.1862C39.5687 46.0132 39.4644 45.8335 39.4134 45.6516C39.3601 45.4609 39.3269 45.3012 39.3202 45.1725C39.318 45.1193 39.2736 45.0772 39.2182 45.0772H38.3952C38.3686 45.0772 38.342 45.0883 38.322 45.1082C38.3021 45.1282 38.2932 45.1548 38.2932 45.1836C38.3109 45.5452 38.4063 45.8779 38.5793 46.1729C38.7524 46.4657 38.9897 46.7207 39.2869 46.9248C39.582 47.1266 39.9324 47.2863 40.3295 47.3995C40.7244 47.5104 41.1613 47.5658 41.6294 47.5658C42.1085 47.5658 42.5433 47.5081 42.9248 47.3928C43.3108 47.2775 43.6458 47.1089 43.923 46.8937C44.2003 46.6764 44.4177 46.408 44.5708 46.0975C44.7216 45.7847 44.7992 45.4365 44.7992 45.0616C44.8037 44.5382 44.6684 44.1057 44.4044 43.7685Z" fill="#001F60"/>
<path id="Vector_6" d="M53.6788 47.2775L49.7414 38.8157C49.7237 38.7802 49.6882 38.7558 49.6505 38.7558H49.0449C49.005 38.7558 48.9673 38.7802 48.9517 38.8179L45.3715 47.2753C45.3582 47.3063 45.3627 47.3418 45.3804 47.3706C45.4004 47.3995 45.4314 47.4172 45.4647 47.4172H46.0193C46.0592 47.4172 46.0969 47.3928 46.1124 47.3551L47.1506 44.9286L51.1899 44.9308L52.3235 47.3618C52.3412 47.3972 52.3767 47.4194 52.4166 47.4194H53.5878C53.6233 47.4194 53.6544 47.4017 53.6743 47.3728C53.6921 47.3462 53.6943 47.3107 53.6788 47.2775ZM50.8417 44.1855L47.4678 44.1833L49.0826 40.4082L50.8417 44.1855Z" fill="#001F60"/>
<path id="Vector_7" d="M60.1427 38.7624L54.6681 38.7602C54.6415 38.7602 54.6149 38.7713 54.5971 38.789C54.5772 38.809 54.5661 38.8334 54.5661 38.8622L54.5638 47.3218C54.5638 47.3773 54.6104 47.4238 54.6659 47.4238H55.7683C55.795 47.4238 55.8216 47.4128 55.8393 47.395C55.8593 47.375 55.8682 47.3507 55.8682 47.3218L55.8704 43.2184L59.5238 43.2207C59.5504 43.2207 59.577 43.2096 59.5948 43.1896C59.6147 43.1697 59.6236 43.1453 59.6236 43.1186V42.5619C59.6236 42.5065 59.577 42.4599 59.5216 42.4599L55.8682 42.4577L55.8704 39.6274L60.1405 39.6297C60.1671 39.6297 60.1937 39.6186 60.2114 39.5986C60.2314 39.5786 60.2425 39.5543 60.2425 39.5276V38.8622C60.2447 38.8068 60.2003 38.7624 60.1427 38.7624Z" fill="#001F60"/>
<g id="Group_4">
<path id="Vector_8" d="M67.6891 47.2841L63.7517 38.8223C63.734 38.7868 63.6985 38.7646 63.6586 38.7646H63.0552C63.0153 38.7646 62.9776 38.789 62.962 38.8268L59.3818 47.2863C59.3685 47.3174 59.3707 47.3529 59.3907 47.3817C59.4107 47.4106 59.4417 47.4283 59.475 47.4283H60.0318C60.0717 47.4283 60.1094 47.4039 60.1249 47.3662L61.1631 44.9397L65.2024 44.9419L66.3337 47.3729C66.3515 47.4083 66.387 47.4305 66.4269 47.4305H67.5981C67.6336 47.4305 67.6647 47.4128 67.6846 47.3839C67.7002 47.3507 67.7046 47.3152 67.6891 47.2841ZM64.852 44.19H61.478L63.0929 40.4149L64.852 44.19Z" fill="#001F60"/>
<path id="Vector_9" d="M75.6569 41.3664C75.4307 40.8407 75.109 40.3794 74.7031 39.9979C74.2972 39.6164 73.8047 39.3125 73.2369 39.0951C72.6734 38.8778 72.0412 38.7669 71.3625 38.7669L68.5808 38.7646C68.5542 38.7646 68.5276 38.7757 68.5076 38.7957C68.4876 38.8157 68.4788 38.8401 68.4788 38.8667L68.4765 47.3263C68.4765 47.3817 68.5209 47.4283 68.5786 47.4283L71.5066 47.4305C72.1211 47.4305 72.7067 47.3241 73.2479 47.1111C73.7892 46.896 74.2705 46.5943 74.6787 46.2084C75.0846 45.8224 75.4107 45.3589 75.6458 44.8288C75.881 44.2987 75.9985 43.7087 76.0008 43.0765C75.9985 42.4688 75.8832 41.8943 75.6569 41.3664ZM69.7786 46.6941L69.7831 39.501H71.0075C71.5865 39.501 72.1033 39.6008 72.547 39.796C72.9906 39.9912 73.3677 40.2574 73.665 40.5879C73.9644 40.9184 74.1951 41.3065 74.3504 41.739C74.5057 42.1738 74.5855 42.6307 74.5855 43.1009C74.5855 43.5246 74.5168 43.9571 74.3837 44.3807C74.2528 44.8044 74.0399 45.1925 73.7515 45.5363C73.4653 45.8779 73.0927 46.1596 72.6446 46.3725C72.1987 46.5854 71.6486 46.6986 71.0053 46.6941H69.7786Z" fill="#001F60"/>
</g>
<path id="Vector_10" d="M78.3654 38.7691H77.2385C77.2119 38.7691 77.1853 38.7802 77.1675 38.7979C77.1476 38.8179 77.1365 38.8423 77.1365 38.8689L77.1343 47.3285C77.1343 47.3839 77.1786 47.4305 77.2363 47.4305H78.3632C78.3898 47.4305 78.4164 47.4194 78.4341 47.4017C78.4541 47.3817 78.463 47.3573 78.463 47.3285L78.4652 38.8689C78.4674 38.8157 78.4208 38.7691 78.3654 38.7691Z" fill="#001F60"/>
<path id="Vector_11" d="M32.9184 47.3041L30.7091 42.5154C30.6936 42.4821 30.6603 42.4599 30.6226 42.4599H30.2832C30.2455 42.4599 30.21 42.4821 30.1967 42.5176L28.1914 47.3063C28.1803 47.3351 28.1825 47.3684 28.2003 47.395C28.218 47.4216 28.2469 47.4372 28.2801 47.4372H28.5907C28.6284 47.4372 28.6639 47.415 28.6772 47.3795L29.2495 46.0287H31.4633L32.0888 47.3839C32.1043 47.4172 32.1376 47.4394 32.1753 47.4394H32.8319C32.8652 47.4394 32.894 47.4239 32.9118 47.395C32.9295 47.3662 32.9317 47.3329 32.9184 47.3041ZM31.2348 45.5319H29.4602L30.3098 43.5246L31.2348 45.5319Z" fill="#001F60"/>
<path id="Vector_12" d="M36.8025 46.8716H34.4446V42.553C34.4446 42.4998 34.4024 42.4577 34.3492 42.4577H33.7303C33.6771 42.4577 33.6349 42.4998 33.6349 42.553V47.3418C33.6349 47.395 33.6771 47.4372 33.7303 47.4372H36.8025C36.8558 47.4372 36.8979 47.395 36.8979 47.3418V46.9647C36.8957 46.9137 36.8536 46.8716 36.8025 46.8716Z" fill="#001F60"/>
<path id="Vector_13" d="M77.2319 60.4437H78.3942C78.4475 60.4437 78.4896 60.4016 78.4896 60.3484V49.2005C78.4896 49.1473 78.4475 49.1051 78.3942 49.1051H77.2319C77.1786 49.1051 77.1365 49.1473 77.1365 49.2005V60.3484C77.1365 60.4016 77.1786 60.4437 77.2319 60.4437Z" fill="#001F60"/>
<path id="Vector_14" d="M75.3064 49.1051H74.2173C74.133 49.1051 74.0643 49.1717 74.0643 49.256C74.0665 50.5557 74.0776 58.4519 74.0643 59.1107H72.7089L72.5803 58.6516C71.5865 55.1071 68.532 53.8473 66.2162 53.8473C64.415 53.8584 62.4008 54.6303 61.0677 56.2694V53.9138H59.6924V59.1107H58.133V53.9782L55.4667 53.9804V53.987C55.46 53.987 55.4556 53.9848 55.4489 53.9848C53.6034 53.9848 52.1992 55.5042 52.1992 57.3762C52.1992 58.0039 52.4499 58.6006 52.7915 59.1129H51.1278L50.9992 58.6538C50.0542 55.2801 47.2437 53.9804 44.9767 53.8606V55.2247C46.7269 55.34 48.8675 56.3626 49.595 58.9532L49.6394 59.1129H43.3064V60.4659H43.3086H51.3186H75.4573V49.256C75.4551 49.1739 75.3885 49.1051 75.3064 49.1051ZM55.0341 59.1107C54.2577 58.8689 53.6899 58.1436 53.6899 57.2764C53.6899 56.2117 54.5394 55.3489 55.5887 55.3489H56.7399V59.1129H55.0341V59.1107ZM61.2141 59.1107L61.2562 58.9554C61.9527 56.3892 64.253 55.2269 66.2206 55.2136C68.024 55.2136 70.4042 56.1918 71.1761 58.9532L71.2205 59.1129H61.2141V59.1107Z" fill="#001F60"/>
<path id="Vector_15" d="M44.6351 67.3463H43.282V67.7522H44.6351V67.3463Z" fill="#001F60"/>
<path id="Vector_16" d="M50.2605 65.7692H49.6394V69.327H50.2605V65.7692Z" fill="#001F60"/>
<path id="Vector_17" d="M54.3398 68.2312L51.7911 65.787L51.7733 65.7692H51.6203V69.3425H52.024V66.8827L54.5727 69.3247L54.5905 69.3425H54.7435V65.7737H54.3398V68.2312Z" fill="#001F60"/>
<path id="Vector_18" d="M58.825 68.5484C58.5167 68.839 58.1463 68.9854 57.7204 68.9854C57.483 68.9854 57.2723 68.9455 57.0926 68.8634C56.9107 68.7813 56.7599 68.6726 56.6401 68.5396C56.5181 68.4043 56.4271 68.2446 56.3673 68.0693C56.3051 67.8897 56.2741 67.6989 56.2741 67.506C56.2741 67.2997 56.3074 67.1089 56.3717 66.9381C56.436 66.7696 56.527 66.621 56.6445 66.499C56.7621 66.377 56.9018 66.2794 57.0616 66.2106C57.2213 66.1419 57.3987 66.1086 57.5873 66.1086C57.7159 66.1086 57.8357 66.1241 57.94 66.1529C58.0465 66.1818 58.1418 66.2217 58.2217 66.2683C58.3015 66.3149 58.3659 66.3659 58.4147 66.4258C58.4635 66.4812 58.4967 66.5389 58.5167 66.5943L58.5367 66.6564H59.0979L59.0424 66.5278C58.9914 66.4125 58.9249 66.3038 58.845 66.204C58.7629 66.1042 58.6609 66.0154 58.5389 65.9422C58.4213 65.8713 58.2794 65.8136 58.1197 65.7737C57.9599 65.7337 57.7803 65.7138 57.5828 65.7138C57.2945 65.7138 57.0261 65.7559 56.7887 65.8402C56.5492 65.9245 56.3406 66.0465 56.1676 66.204C55.9946 66.3614 55.8593 66.5544 55.7639 66.7762C55.6685 66.998 55.6219 67.2464 55.6219 67.5193C55.6219 67.7522 55.6596 67.9851 55.7351 68.2069C55.8105 68.4331 55.9303 68.6349 56.09 68.8079C56.2497 68.9832 56.4538 69.1229 56.7 69.2294C56.9462 69.3358 57.2412 69.3891 57.574 69.3891C57.7847 69.3891 57.9777 69.3691 58.1463 69.3292C58.3126 69.2893 58.4613 69.2382 58.5877 69.1806C58.7141 69.1229 58.8206 69.0586 58.9071 68.9876C58.9936 68.9188 59.058 68.859 59.1023 68.8057L59.1578 68.737L58.8849 68.4908L58.825 68.5484Z" fill="#001F60"/>
<path id="Vector_19" d="M47.9646 67.4483C47.8116 67.3596 47.6408 67.2864 47.4589 67.2265C47.2836 67.1688 47.1217 67.1089 46.9775 67.0468C46.8378 66.9869 46.718 66.916 46.6248 66.8383C46.545 66.7718 46.5073 66.6875 46.5073 66.5744C46.5073 66.5101 46.5206 66.4524 46.5472 66.3992C46.576 66.3437 46.616 66.2949 46.6714 66.255C46.7291 66.2106 46.8023 66.1751 46.8888 66.1485C46.9753 66.1219 47.0773 66.1064 47.1949 66.1064C47.3857 66.1064 47.5498 66.1463 47.6807 66.2262C47.8027 66.2994 47.8737 66.4147 47.8959 66.5766L47.907 66.6565H48.4238L48.4061 66.55C48.3839 66.4169 48.3351 66.2971 48.2597 66.1907C48.1865 66.0886 48.0911 65.9977 47.9779 65.9267C47.8648 65.8557 47.7384 65.8003 47.6008 65.767C47.3169 65.6938 46.9953 65.696 46.7224 65.7737C46.5805 65.8158 46.4518 65.8757 46.3409 65.9556C46.2278 66.0376 46.139 66.1419 46.0725 66.2661C46.0059 66.3925 45.9727 66.5367 45.9727 66.6942C45.9727 66.9049 46.0281 67.0801 46.139 67.211C46.2433 67.3352 46.3742 67.4394 46.5294 67.5215C46.6803 67.6013 46.8444 67.6701 47.0197 67.7256C47.1816 67.7788 47.3391 67.8387 47.4833 67.9074C47.6186 67.9718 47.7317 68.0494 47.8205 68.1403C47.9003 68.2224 47.9402 68.3355 47.9402 68.4775C47.9402 68.6571 47.8803 68.7769 47.7539 68.859C47.6164 68.9455 47.4278 68.9898 47.1927 68.9898C47.0041 68.9898 46.8511 68.9654 46.7424 68.9166C46.6337 68.8701 46.5516 68.8146 46.4962 68.7503C46.4407 68.686 46.403 68.6216 46.3853 68.5551C46.3653 68.4841 46.3542 68.4242 46.3498 68.3754L46.3453 68.2889H45.8351L45.8396 68.3843C45.8462 68.5374 45.8862 68.6771 45.9594 68.8013C46.0326 68.9255 46.1324 69.032 46.2566 69.1163C46.3764 69.2005 46.5228 69.2649 46.6869 69.3137C46.8489 69.358 47.0285 69.3824 47.2193 69.3824C47.4145 69.3824 47.592 69.358 47.7495 69.3092C47.9092 69.2627 48.0489 69.1917 48.1643 69.1007C48.2818 69.0098 48.3728 68.8967 48.4371 68.7658C48.5014 68.6349 48.5325 68.4886 48.5325 68.3311C48.5325 68.1115 48.4748 67.9274 48.3639 67.7854C48.2574 67.6524 48.1243 67.5392 47.9646 67.4483Z" fill="#001F60"/>
<path id="Vector_20" d="M75.2222 67.5592C75.2222 67.7167 75.2155 67.8875 75.2044 68.0694C75.1933 68.2401 75.1645 68.3998 75.1179 68.5396C75.0758 68.6727 75.0136 68.7858 74.9338 68.8701C74.8606 68.9499 74.7652 68.9854 74.6388 68.9854C74.5145 68.9854 74.4258 68.9477 74.3548 68.8701C74.2772 68.7836 74.2173 68.6727 74.1752 68.5374C74.1308 68.3954 74.102 68.2379 74.0886 68.0671C74.0753 67.8875 74.0709 67.7145 74.0709 67.557C74.0709 67.3973 74.0776 67.2221 74.0886 67.038C74.102 66.865 74.1308 66.703 74.1752 66.5589C74.2173 66.4236 74.2772 66.3104 74.357 66.2217C74.428 66.1419 74.5168 66.1042 74.641 66.1042C74.7674 66.1042 74.8606 66.1419 74.936 66.2217C75.0159 66.3104 75.0802 66.4236 75.1201 66.5589C75.1645 66.7008 75.1933 66.8627 75.2066 67.038C75.2177 67.2221 75.2222 67.3973 75.2222 67.5592ZM75.79 66.8295C75.7545 66.6942 75.7079 66.5611 75.6481 66.4302C75.5859 66.2971 75.5083 66.1774 75.4196 66.0731C75.3286 65.9667 75.2155 65.8801 75.0891 65.8136C74.9582 65.7471 74.8074 65.7116 74.6388 65.7116C74.4702 65.7116 74.3193 65.7448 74.1907 65.8136C74.0642 65.8801 73.9555 65.9689 73.8646 66.0731C73.7759 66.1751 73.7005 66.2949 73.6406 66.4302C73.5829 66.5589 73.5363 66.6942 73.5008 66.8273C73.4653 66.9648 73.4409 67.0956 73.4276 67.2198C73.4143 67.3441 73.4054 67.4572 73.4054 67.5548C73.4054 67.7655 73.4276 67.9784 73.4742 68.1847C73.5208 68.3976 73.594 68.5928 73.6916 68.7658C73.7892 68.9433 73.9178 69.0896 74.0709 69.2028C74.2306 69.3181 74.4214 69.378 74.6388 69.378C74.8562 69.378 75.0491 69.3203 75.2111 69.205C75.3686 69.0941 75.4972 68.9455 75.5993 68.768C75.6991 68.5906 75.7723 68.3954 75.8189 68.1869C75.8654 67.9784 75.8876 67.7655 75.8876 67.557C75.8876 67.4616 75.881 67.3485 75.8654 67.2221C75.8499 67.0956 75.8255 66.9625 75.79 66.8295Z" fill="#001F60"/>
<path id="Vector_21" d="M69.1553 67.5592C69.1553 67.7189 69.1487 67.8919 69.1354 68.0693C69.1221 68.2401 69.0932 68.3998 69.0488 68.5396C69.0067 68.6749 68.9446 68.7858 68.8647 68.87C68.7938 68.9477 68.6962 68.9854 68.5697 68.9854C68.4455 68.9854 68.3545 68.9477 68.2858 68.87C68.2081 68.7835 68.1482 68.6726 68.1061 68.5373C68.0617 68.3954 68.0329 68.2379 68.0218 68.0671C68.0085 67.8897 68.0018 67.7167 68.0018 67.557C68.0018 67.3928 68.0085 67.2198 68.0218 67.0379C68.0351 66.8627 68.0617 66.703 68.1061 66.5611C68.1482 66.4258 68.2104 66.3104 68.288 66.2239C68.359 66.1441 68.4477 66.1086 68.5719 66.1086C68.6962 66.1086 68.7938 66.1485 68.867 66.2261C68.9468 66.3149 69.0089 66.428 69.0511 66.5633C69.0954 66.7052 69.1243 66.8672 69.1376 67.0424C69.1509 67.2198 69.1553 67.395 69.1553 67.5592ZM69.7232 66.8294C69.6877 66.6964 69.6411 66.5633 69.579 66.4302C69.5169 66.2949 69.4393 66.1751 69.3505 66.0753C69.2596 65.9689 69.1487 65.8824 69.02 65.8158C68.8914 65.7493 68.7383 65.7138 68.5697 65.7138C68.4011 65.7138 68.2503 65.7471 68.1216 65.8158C67.9952 65.8824 67.8865 65.9711 67.7956 66.0753C67.7068 66.1796 67.6314 66.2993 67.5715 66.4324C67.5138 66.5633 67.4673 66.6964 67.4318 66.8294C67.3963 66.967 67.3719 67.1001 67.3586 67.222C67.343 67.3485 67.3364 67.4616 67.3364 67.557C67.3364 67.7655 67.3586 67.9784 67.4051 68.1869C67.4517 68.3976 67.5249 68.595 67.6225 68.768C67.7224 68.9455 67.851 69.0941 68.0018 69.205C68.1593 69.3203 68.3523 69.3802 68.5697 69.3802C68.7871 69.3802 68.9801 69.3225 69.1398 69.2072C69.2973 69.0963 69.4259 68.9477 69.528 68.7702C69.6278 68.5972 69.701 68.3998 69.7476 68.1869C69.7942 67.9784 69.8164 67.7655 69.8164 67.557C69.8164 67.4616 69.8097 67.3507 69.7942 67.222C69.7831 67.0956 69.7587 66.967 69.7232 66.8294Z" fill="#001F60"/>
<path id="Vector_22" d="M72.1898 67.5592C72.1898 67.7189 72.1832 67.8897 72.1699 68.0693C72.1588 68.2401 72.1299 68.3976 72.0856 68.5396C72.0434 68.6749 71.9813 68.7858 71.9015 68.87C71.8283 68.9499 71.7329 68.9854 71.6064 68.9854C71.4822 68.9854 71.3913 68.9477 71.3225 68.87C71.2449 68.7835 71.185 68.6726 71.1428 68.5373C71.0985 68.3954 71.0696 68.2379 71.0585 68.0671C71.0452 67.8897 71.0408 67.7167 71.0408 67.557C71.0408 67.3928 71.0475 67.2198 71.0585 67.0379C71.0696 66.8627 71.0985 66.703 71.1428 66.5611C71.185 66.4258 71.2471 66.3126 71.3247 66.2239C71.3957 66.1441 71.4844 66.1064 71.6087 66.1064C71.7329 66.1064 71.8305 66.1463 71.9037 66.2239C71.9835 66.3126 72.0457 66.4258 72.09 66.5611C72.1344 66.7052 72.1632 66.8672 72.1743 67.0402C72.1832 67.222 72.1898 67.395 72.1898 67.5592ZM72.7577 66.8294C72.7222 66.6941 72.6734 66.5589 72.6135 66.4302C72.5514 66.2949 72.4738 66.1751 72.385 66.0753C72.2941 65.9689 72.181 65.8824 72.0545 65.8158C71.9237 65.7493 71.7728 65.7138 71.6042 65.7138C71.4356 65.7138 71.2848 65.7471 71.1561 65.8158C71.0297 65.8824 70.921 65.9711 70.8301 66.0753C70.7413 66.1796 70.6659 66.2993 70.606 66.4324C70.5484 66.5611 70.5018 66.6964 70.4663 66.8294C70.433 66.9581 70.4086 67.0912 70.3931 67.222C70.3776 67.3463 70.3709 67.4572 70.3709 67.557C70.3709 67.7655 70.3931 67.9762 70.4397 68.1869C70.4862 68.3998 70.5594 68.595 70.657 68.768C70.7569 68.9455 70.8855 69.0941 71.0386 69.205C71.1961 69.3203 71.3868 69.3802 71.6064 69.3802C71.8238 69.3802 72.0168 69.3225 72.1788 69.2072C72.334 69.0963 72.4649 68.9477 72.5669 68.7702C72.6668 68.595 72.74 68.3998 72.7865 68.1891C72.8331 67.9806 72.8553 67.7699 72.8553 67.5592C72.8553 67.4616 72.8487 67.3485 72.8331 67.2243C72.8176 67.0956 72.7932 66.967 72.7577 66.8294Z" fill="#001F60"/>
<path id="Vector_23" d="M60.034 69.327H62.3942V68.8789H60.6551V67.6501H62.1479V67.2442H60.6551V66.2173H62.3942V65.7692H60.034V69.327Z" fill="#001F60"/>
<g id="Group_5">
<path id="Vector_24" d="M41.7758 59.2349C41.7758 59.2083 41.7669 59.1129 41.7669 59.1129H35.8509L35.8931 58.931C36.5874 56.3758 38.9653 55.2136 40.9284 55.1892V53.8229C38.5438 53.8473 35.7067 55.1914 34.6509 58.1281C34.6065 58.2434 34.5599 58.3588 34.5222 58.4808C34.4778 58.6338 34.4401 58.7846 34.4069 58.9288L34.3647 59.0841H34.3714C34.2028 59.8759 34.1828 60.4615 34.1828 60.4615H40.2097C40.2009 60.6056 40.1875 60.7764 40.152 60.9516C40.101 61.3354 39.9613 61.8056 39.7616 62.2758C39.5487 62.786 39.2049 63.3094 38.7701 63.7885C38.2843 64.3164 37.6876 64.7534 37.0399 65.055C36.3478 65.3855 35.5093 65.5763 34.7418 65.5785L34.0475 65.5519L33.4197 65.4631C33.0382 65.3811 32.5923 65.2702 32.1687 65.0705C31.765 64.8909 31.3967 64.6624 31.0662 64.3963C30.7401 64.1212 30.454 63.8085 30.2166 63.4602C29.7131 62.7549 29.3826 61.8877 29.2584 60.9516C29.2295 60.752 29.1985 60.5169 29.1962 60.2751L29.1829 59.9624L29.1985 59.5964C29.2007 59.5365 29.2051 59.4855 29.2096 59.4323C29.214 59.3946 29.2184 59.3502 29.2229 59.3014C29.2295 59.2571 29.234 59.2127 29.2406 59.1661L29.2517 59.0752C29.2628 59.0064 29.2739 58.9332 29.2872 58.8556L29.3116 58.7336C29.3249 58.6671 29.3382 58.6005 29.3515 58.534C29.3537 58.5251 29.356 58.514 29.3582 58.5051C29.3715 58.4386 29.387 58.3743 29.4048 58.3077C29.4225 58.2346 29.4403 58.1636 29.4602 58.0926C29.5201 57.8686 29.5955 57.629 29.6865 57.3762H28.2224C28.1559 57.5714 28.0916 57.7688 28.0339 57.9728C27.9784 58.1414 27.943 58.3122 27.9075 58.5029L27.8587 58.7425L27.8343 58.9133C27.8032 59.1284 27.7699 59.3524 27.7633 59.5454L27.7433 59.918C27.7411 60.0378 27.7455 60.1243 27.75 60.213L27.7544 60.335C27.7566 60.5724 27.7766 60.823 27.8232 61.1446C27.9651 62.2847 28.3711 63.3582 28.9922 64.2454C29.6066 65.1593 30.5227 65.9223 31.5675 66.3947C32.0045 66.601 32.4881 66.7585 33.1358 66.8982C33.3199 66.9315 33.5085 66.9581 33.7125 66.9847L33.9566 67.0158L34.713 67.0512C35.7467 67.0512 36.7094 66.8405 37.661 66.4058C38.4839 66.0265 39.2448 65.4764 39.8615 64.8132C40.1476 64.5027 40.4005 64.1767 40.6223 63.8395C40.8375 63.5179 41.0194 63.1874 41.1613 62.8569C41.4253 62.2448 41.5917 61.6903 41.6693 61.1646C41.7092 60.9406 41.7292 60.7587 41.7403 60.599C41.8002 60.0156 41.7869 59.4833 41.7758 59.2349Z" fill="#001F60"/>
</g>
<path id="Vector_25" d="M65.4398 68.7969L65.9234 68.2801C66.0698 68.1204 66.1962 67.9828 66.3027 67.8653C66.4092 67.7455 66.5001 67.6302 66.5689 67.5215C66.6398 67.4106 66.6931 67.293 66.7264 67.171C66.7596 67.0513 66.7752 66.9071 66.7752 66.7407C66.7752 66.6032 66.7463 66.4701 66.6909 66.3437C66.6354 66.2195 66.5556 66.1064 66.4535 66.0132C66.3515 65.9178 66.2228 65.8424 66.0742 65.7892C65.9278 65.736 65.7592 65.7094 65.5751 65.7094C65.411 65.7094 65.2557 65.736 65.1137 65.7892C64.9717 65.8424 64.8475 65.9156 64.741 66.011C64.6346 66.1064 64.5503 66.2195 64.4904 66.3504C64.4305 66.4812 64.3994 66.621 64.3994 66.7696V66.8605H65.056L65.0649 66.7784C65.0738 66.6809 65.0893 66.5899 65.1115 66.5034C65.1315 66.4236 65.1625 66.3526 65.2024 66.2927C65.2424 66.235 65.2912 66.1884 65.3511 66.1552C65.4109 66.1219 65.4864 66.1042 65.5795 66.1042C65.737 66.1042 65.8612 66.1596 65.9611 66.2705C66.0631 66.3836 66.1141 66.5433 66.1141 66.7407C66.1141 66.8716 66.0897 66.998 66.0431 67.1222C65.9943 67.2531 65.93 67.3773 65.8568 67.4971C65.7814 67.6191 65.6993 67.7366 65.6106 67.8453C65.544 67.9274 65.4797 68.0028 65.4198 68.076L64.4283 69.1872V69.3247H66.824V68.7946H65.4398V68.7969Z" fill="#001F60"/>
<path id="Vector_26" d="M36.0417 67.7522L37.0953 68.7924C37.1153 68.8124 37.1153 68.8434 37.0953 68.8634L36.055 69.917C36.035 69.9369 36.004 69.9369 35.984 69.917L34.9303 68.8767C34.9104 68.8567 34.9104 68.8257 34.9303 68.8057L35.9707 67.7522C35.9907 67.7322 36.0217 67.7322 36.0417 67.7522Z" fill="#001F60"/>
<path id="Vector_27" d="M55.917 51.0526L56.9706 52.0928C56.9906 52.1128 56.9906 52.1438 56.9706 52.1638L55.9303 53.2174C55.9103 53.2373 55.8793 53.2373 55.8593 53.2174L54.8056 52.1771C54.7857 52.1572 54.7857 52.1261 54.8056 52.1061L55.846 51.0526C55.8659 51.0326 55.897 51.0326 55.917 51.0526Z" fill="#001F60"/>
<path id="Vector_28" d="M34.8017 68.87L33.7547 69.917C33.7347 69.9369 33.7037 69.9369 33.6837 69.917L32.6367 68.87C32.6167 68.8501 32.6167 68.819 32.6367 68.7991L33.6837 67.7522C33.7037 67.7322 33.7347 67.7322 33.7547 67.7522L34.8017 68.7991C34.8217 68.819 34.8217 68.8501 34.8017 68.87Z" fill="#001F60"/>
</g>
</g>
</g>
</g>
<defs>
<clipPath id="clip0_0_86">
<rect width="106" height="106" fill="white"/>
</clipPath>
</defs>
</svg>
